<mxfile host="app.diagrams.net" modified="2023-11-28T19:53:53.944Z" agent="Mozilla/5.0 (Windows NT 10.0; Win64; x64) AppleWebKit/537.36 (KHTML, like Gecko) Chrome/119.0.0.0 Safari/537.36" etag="IFXB7Gvh0FFf1zPtIEP3" version="22.1.4" type="device">
  <diagram id="bUvyWyZllCeYc7cgLJYJ" name="Page-1">
    <mxGraphModel dx="1985" dy="1060" grid="1" gridSize="10" guides="1" tooltips="1" connect="1" arrows="1" fold="1" page="1" pageScale="1" pageWidth="1169" pageHeight="827" math="0" shadow="0">
      <root>
        <mxCell id="0" />
        <mxCell id="1" parent="0" />
        <mxCell id="15" value="" style="rounded=1;whiteSpace=wrap;html=1;labelBackgroundColor=#9f3232;strokeColor=#000000;fontSize=28;" parent="1" vertex="1">
          <mxGeometry x="540" y="60" width="1330" height="620" as="geometry" />
        </mxCell>
        <mxCell id="32" value="" style="rounded=1;whiteSpace=wrap;html=1;labelBackgroundColor=#ffffff;strokeColor=#000000;fontSize=28;" parent="1" vertex="1">
          <mxGeometry x="1500" y="157.7" width="340" height="480" as="geometry" />
        </mxCell>
        <mxCell id="18" style="edgeStyle=none;html=1;exitX=1;exitY=0.25;exitDx=0;exitDy=0;fontSize=28;" parent="1" source="10" edge="1">
          <mxGeometry relative="1" as="geometry">
            <mxPoint x="540" y="210" as="targetPoint" />
          </mxGeometry>
        </mxCell>
        <mxCell id="19" value="metrics" style="edgeLabel;html=1;align=center;verticalAlign=middle;resizable=0;points=[];fontSize=28;" parent="18" vertex="1" connectable="0">
          <mxGeometry x="0.2547" y="5" relative="1" as="geometry">
            <mxPoint x="-19" y="5" as="offset" />
          </mxGeometry>
        </mxCell>
        <mxCell id="20" style="edgeStyle=none;html=1;exitX=1;exitY=0.5;exitDx=0;exitDy=0;entryX=-0.001;entryY=0.469;entryDx=0;entryDy=0;entryPerimeter=0;fontSize=28;" parent="1" source="10" target="15" edge="1">
          <mxGeometry relative="1" as="geometry" />
        </mxCell>
        <mxCell id="21" value="logs" style="edgeLabel;html=1;align=center;verticalAlign=middle;resizable=0;points=[];fontSize=28;" parent="20" vertex="1" connectable="0">
          <mxGeometry x="-0.1072" y="1" relative="1" as="geometry">
            <mxPoint as="offset" />
          </mxGeometry>
        </mxCell>
        <mxCell id="22" style="edgeStyle=none;html=1;exitX=1;exitY=0.75;exitDx=0;exitDy=0;entryX=0;entryY=0.695;entryDx=0;entryDy=0;entryPerimeter=0;fontSize=28;" parent="1" source="10" target="15" edge="1">
          <mxGeometry relative="1" as="geometry" />
        </mxCell>
        <mxCell id="23" value="traces" style="edgeLabel;html=1;align=center;verticalAlign=middle;resizable=0;points=[];fontSize=28;" parent="22" vertex="1" connectable="0">
          <mxGeometry x="-0.134" relative="1" as="geometry">
            <mxPoint as="offset" />
          </mxGeometry>
        </mxCell>
        <mxCell id="10" value="" style="rounded=1;whiteSpace=wrap;html=1;" parent="1" vertex="1">
          <mxGeometry x="80" y="70" width="297.5" height="561" as="geometry" />
        </mxCell>
        <mxCell id="2" value="" style="shape=image;verticalLabelPosition=bottom;labelBackgroundColor=default;verticalAlign=top;aspect=fixed;imageAspect=0;image=data:image/svg+xml,PHN2ZyB4bWxucz0iaHR0cDovL3d3dy53My5vcmcvMjAwMC9zdmciIHByZXNlcnZlQXNwZWN0UmF0aW89InhNaWRZTWlkIiB2ZXJzaW9uPSIxLjEiIHZpZXdCb3g9IjAgMCA1MTIgOTQuNTcxNTc4OTc5NDkyMTkiIGhlaWdodD0iOTQuNTcxNTc4OTc5NDkyMTkiIHdpZHRoPSI1MTIiPgogICAgPHRpdGxlPkZhc3RBUEk8L3RpdGxlPgogICAgPGcgZmlsbD0iIzAwOTY4OCI+CiAgICAgICAgPHBhdGggb3BhY2l0eT0iMC45ODAwMDAwNCIgZD0iTTQ3LjI4NTg0MzksMCBDMjEuMTc5MTE5OSwwIDAsMjEuMTc5MDg1OSAwLDQ3LjI4NTc2NjQgQzAsNzMuMzkyNDY3NyAyMS4xNzkxMTk5LDk0LjU3MTU4MDIgNDcuMjg1ODQzOSw5NC41NzE1ODAyIEM3My4zOTI0NTU5LDk0LjU3MTU4MDIgOTQuNTcxNTU5NSw3My4zOTI0Njc3IDk0LjU3MTU1OTUsNDcuMjg1NzY2NCBDOTQuNTcxNTU5NSwyMS4xNzkwODU5IDczLjM5MjQ1NTksMCA0Ny4yODU4NDM5LDAgWiBNNDQuODIxOTg0Niw4NS4xOTAyMDExIEw0NC44MjE5ODQ2LDU1LjUyOTk4OSBMMjguMzMzNjUyNiw1NS41Mjk5ODkgTDUyLjAyMzgzODEsOS4zODEzNTU0NiBMNTIuMDIzODM4MSwzOS4wNDE1NTEzIEw2Ny44OTYzNDUsMzkuMDQxNTUxMyBMNDQuODIxOTg0Niw4NS4xOTAyMDExIFoiLz4KICAgICAgICA8cGF0aCBkPSJNMTMyLjMzMzczLDg3LjgyMTI5NDcgTDEzMi4zMzM3Myw2LjE2MTIyODA3IEwxODEuNTg5MDA3LDYuMTYxMjI4MDcgTDE4MS41ODkwMDcsMTUuOTQxNTgxNyBMMTQzLjc2Mzc4MiwxNS45NDE1ODE3IEwxNDMuNzYzNzgyLDQwLjU2OTIxOTYgTDE3Ny4zNDY5MjYsNDAuNTY5MjE5NiBMMTc3LjM0NjkyNiw1MC4yMzE3Mzc4IEwxNDMuNzYzNzgyLDUwLjIzMTczNzggTDE0My43NjM3ODIsODcuODIxMjk0NyBMMTMyLjMzMzczLDg3LjgyMTI5NDcgWiBNMjA5LjY3MjUzOSw3OS45MjYzMTM4IEwyMTEuMzU0MjQzLDc5LjkyMDQ5NTkgQzIxMy4yNjE5Miw3OS45MDY5MjA3IDIxNC45Nzk1MDksNzkuODY5NTg4OSAyMTYuNTA3MDA5LDc5LjgwODUwMDYgQzIxOC41NDk0OSw3OS42NTEzODY3IDIyMC4yMzg0NjYsNzkuNDE1NzE1OCAyMjEuNTczOTQsNzkuMTAxNDg4IEwyMjEuNTczOTQsNjAuODM2OTQwOSBDMjIwLjc4ODM3LDYwLjQ0NDE1NjEgMjE5LjQ5MjE3OCw2MC4xMjk5Mjc4IDIxNy42ODUzNjMsNTkuODk0MjU2IEMyMTUuOTU3MTEsNTkuNTgwMDI4MiAyMTMuODM2MDY4LDU5LjQyMjkxNDMgMjExLjMyMjIzNSw1OS40MjI5MTQzIEMyMDkuNjcyNTQ0LDU5LjQyMjkxNDMgMjA3LjkwNTAxLDU5LjU0MDc0OTcgMjA2LjAxOTYzNCw1OS43NzY0MjA2IEMyMDQuMjEyODI5LDYwLjAxMjA5MTQgMjAyLjUyMzg1Miw2MC41MjI3MTI2IDIwMC45NTI3MDMsNjEuMzA4Mjg0MSBDMTk5LjQ2MDEyNiw2Mi4wMTUyOTc2IDE5OC4yMDMyMTUsNjMuMDM2NTM5IDE5Ny4xODE5Nyw2NC4zNzIwMDgxIEMxOTYuMTYwNzI0LDY1LjYyODkxOTMgMTk1LjY1MDEwMiw2Ny4zMTc4OTYyIDE5NS42NTAxMDIsNjkuNDM4OTM4OCBDMTk1LjY1MDEwMiw3My4zNjY3OTYyIDE5Ni45MDcwMTgsNzYuMTE2Mjk0MyAxOTkuNDIwODUsNzcuNjg3NDMzMyBDMjAxLjkzNDY3Miw3OS4xODAwMjAzIDIwNS4zNTE5MDIsNzkuOTI2MzEzOCAyMDkuNjcyNTM5LDc5LjkyNjMxMzggWiBNMjA4LjcyOTg1NiwyNS4wMTQ5MjEzIEMyMTIuODU0MTA1LDI1LjAxNDkyMTMgMjE2LjM1Njk1MiwyNS41MzI3NTM2IDIxOS4yMzgzOTcsMjYuNTY4NDE4MyBMMjE5LjgwNjQwMSwyNi43ODI0NTU2IEMyMjIuNjY1ODc4LDI3LjgwODkzNDkgMjI0Ljk3NzkwMSwyOS4yODAyMjE2IDIyNi43NDI0NywzMS4xOTYzMTU2IEwyMjcuMTEyMjEyLDMxLjYxMzcxNTUgQzIyOC45OTc1NzksMzMuNjU2MTk5MSAyMzAuMzMzMDQ3LDM2LjEzMDc0NjUgMjMxLjExODYxNiwzOS4wMzczNTc2IEMyMzEuOTA0MTg2LDQxLjg2NTQxMTggMjMyLjI5Njk3MSw0NS4wMDc2OTQyIDIzMi4yOTY5NzEsNDguNDY0MjA1IEwyMzIuMjk2OTcxLDg2Ljc2MDc2ODUgTDIzMC4xNzU5MzMsODcuMTI4NDE1IEMyMjkuNjEwMzIzLDg3LjIyODk2NzkgMjI4Ljk4MTg2Nyw4Ny4zNDIwODk5IDIyOC4yOTA1NjYsODcuNDY3NzgxMSBMMjI3LjAwOTEwMiw4Ny42NDQ1MzcgQzIyNS42ODM0NSw4Ny44MjEyOTIgMjI0LjIyNTIzMyw4Ny45OTgwNDQyIDIyMi42MzQ0NTEsODguMTc0NzkzNiBDMjIwLjUxMzQxOCw4OC40MTA0Njk0IDIxOC4xOTU5ODYsODguNjA2ODY0MiAyMTUuNjgyMTU0LDg4Ljc2Mzk3ODEgQzIxMy4yNDY4ODMsODguOTk5NjQ0MSAyMTAuODExNjE4LDg5LjExNzQ3NyAyMDguMzc2MzU3LDg5LjExNzQ3NyBDMjA0LjkxOTg0MSw4OS4xMTc0NzcgMjAxLjczODI3OCw4OC43NjM5NzMyIDE5OC44MzE2NjUsODguMDU2OTY1NiBDMTk1LjkyNTA1Myw4Ny4zNDk5NDgxIDE5My40MTEyMjgsODYuMjUwMTQ1OSAxOTEuMjkwMTg5LDg0Ljc1NzU1ODkgQzE4OS4xNjkxNDksODMuMTg2NDE5OSAxODcuNTE5NDUsODEuMTQzOTM5MiAxODYuMzQxMDk0LDc4LjYzMDExNjggQzE4NS4xNjI3MzksNzYuMTE2Mjk0MyAxODQuNTczNTYxLDczLjA5MTg0OTMgMTg0LjU3MzU2MSw2OS41NTY3ODE2IEMxODQuNTczNTYxLDY2LjE3ODgyMzkgMTg1LjI0MTI5Niw2My4yNzIyMTAzIDE4Ni41NzY3NjYsNjAuODM2OTQwOSBDMTg3Ljk5MDc5NCw1OC40MDE2NzI1IDE4OS44NzYxNjMsNTYuNDM3NzQ2MyAxOTIuMjMyODc0LDU0Ljk0NTE2MjIgQzE5NC41ODk1ODgsNTMuNDUyNTc4MiAxOTcuMzM5MDgzLDUyLjM1Mjc3OTQgMjAwLjQ4MTM2MSw1MS42NDU3NjU5IEMyMDMuNjIzNjQ5LDUwLjkzODc1MjMgMjA2LjkyMzA0Niw1MC41ODUyNDU2IDIxMC4zNzk1NTIsNTAuNTg1MjQ1NiBDMjExLjQ3OTM0OSw1MC41ODUyNDU2IDIxMi42MTg0MjgsNTAuNjYzODAyNSAyMTMuNzk2Nzg3LDUwLjgyMDkxNjQgQzIxNC45NzUxNDYsNTAuODk5NDc4MyAyMTYuMDc0OTQzLDUxLjA1NjU5MjIgMjE3LjA5NjE3OSw1MS4yOTIyNTgxIEwyMTguMTQzNjA2LDUxLjQ0OTM3MjIgQzIxOC42NDExMzUsNTEuNTI3OTI5MyAyMTkuMDk5Mzg3LDUxLjYwNjQ4NjUgMjE5LjUxODM2Miw1MS42ODUwNDM5IEwyMjEuMTIxMDEsNTIuMDEyMTYwNCBDMjIxLjMwNTEyNyw1Mi4wNTI2NjYzIDIyMS40NTYxMDQsNTIuMDg3NjQ4NyAyMjEuNTczOTQsNTIuMTE3MTA3NiBMMjIxLjU3Mzk0LDQ5LjA1MzM4MjEgQzIyMS41NzM5NCw0Ny4yNDY1NzAzIDIyMS4zNzc1NDUsNDUuNDc5MDM2NCAyMjAuOTg0NzU1LDQzLjc1MDc4MDUgQzIyMC41OTE5NzUsNDEuOTQzOTY4NyAyMTkuODg0OTYzLDQwLjM3MjgyNzcgMjE4Ljg2MzcxNywzOS4wMzczNTc2IEMyMTcuODQyNDcyLDM3LjYyMzMzMDUgMjE2LjQyODQ0NywzNi41MjM1MzE4IDIxNC42MjE2NDIsMzUuNzM3OTYxMyBDMjEyLjg5MzM3OSwzNC44NzM4MzI4IDIxMC42MTUyMjMsMzQuNDQxNzY4NiAyMDcuNzg3MTczLDM0LjQ0MTc2ODYgQzIwNC40NzQ2NzksMzQuNDQxNzY4NiAyMDEuNTI1MjQ0LDM0LjY3MjgwMjggMTk4LjkzODg2OSwzNS4xMzQ4NzEzIEwxOTcuMTM4Njg3LDM1LjQ3MTAyNjkgQzE5NS4wMTI4MzIsMzUuODg0NjU0MSAxOTMuMzc3NTYxLDM2LjMyNzEzOSAxOTIuMjMyODc0LDM2Ljc5ODQ4MTYgTDE5MC45MzY2ODMsMjcuNzI1MTQwNSBDMTkyLjM1MDcwOSwyNy4wOTY2ODM5IDE5NC43MDc0MjMsMjYuNTA3NTA1OCAxOTguMDA2ODI1LDI1Ljk1NzYwNjIgQzIwMC45NzYyNzgsMjUuMzkxOTk1MiAyMDQuMTY4NDQxLDI1LjA4MDkwOTIgMjA3LjU4MzMxNiwyNS4wMjQzNDgxIEwyMDguNzI5ODU2LDI1LjAxNDkyMTMgWiBNMjY0LjY0MTAxLDc5LjkyNjMxMzggQzI2OS4xMTg3NjEsNzkuOTI2MzEzOCAyNzIuNDE4MTU4LDc5LjMzNzEzNDIgMjc0LjUzOTIwMSw3OC4xNTg3NzUxIEMyNzYuNzM4Nzk1LDc2Ljk4MDQxNTkgMjc3LjgzODU5Miw3NS4wOTUwNDQxIDI3Ny44Mzg1OTIsNzIuNTAyNjU5OCBDMjc3LjgzODU5Miw2OS44MzE3MjM1IDI3Ni43NzgwNzYsNjcuNzEwNjg1OSAyNzQuNjU3MDQzLDY2LjEzOTU0NjkgQzI3Mi41MzYwMDEsNjQuNTY4NDAyOSAyNjkuMDQwMjA5LDYyLjgwMDg2NzYgMjY0LjE2OTY2OCw2MC44MzY5NDA5IEMyNjEuODEyOTYsNTkuODk0MjU2NSAyNTkuNTM0ODAzLDU4Ljk1MTU3MTYgMjU3LjMzNTE5OSw1OC4wMDg4ODYyIEMyNTUuMjE0MTY2LDU2Ljk4NzY0NDkgMjUzLjM2ODA3NSw1NS44MDkyODkyIDI1MS43OTY5MjYsNTQuNDczODE5IEMyNTAuMjI1Nzg3LDUzLjEzODM0ODkgMjQ4Ljk2ODg3Niw1MS41Mjc5Mjk1IDI0OC4wMjYxOTMsNDkuNjQyNTYwNyBDMjQ3LjA4MzUwOSw0Ny43NTcxOTA5IDI0Ni42MTIxNjgsNDUuNDM5NzU3NCAyNDYuNjEyMTY4LDQyLjY5MDI2MDIgQzI0Ni42MTIxNjgsMzcuMjY5ODIyOCAyNDguNjE1MzcyLDMyLjk4ODQ2MzEgMjUyLjYyMTc4MiwyOS44NDYxODExIEMyNTYuNjI4MTkxLDI2LjYyNTM0MTIgMjYyLjA4NzkwNywyNS4wMTQ5MjEzIDI2OS4wMDA5MjgsMjUuMDE0OTIxMyBDMjcwLjcyOTE4MSwyNS4wMTQ5MjEzIDI3Mi40NTc0MzQsMjUuMTMyNzU3MiAyNzQuMTg1Njg3LDI1LjM2ODQyOSBDMjc1LjkxMzk1LDI1LjUyNTU0MjkgMjc3LjUyNDM3LDI1Ljc2MTIxMzggMjc5LjAxNjk0NywyNi4wNzU0NDE2IEMyODAuMjk2MzA3LDI2LjI3NzQ0NiAyODEuNDMxMzc3LDI2LjUwODMwNzcgMjgyLjQyMjE1NywyNi43NjgwMjY4IEwyODMuNzM3NzM5LDI3LjEyODU5NzggQzI4NC41MTg0MDIsMjcuMzQ5NTM5OCAyODUuMTQ0NDA0LDI3LjU0ODM4NzQgMjg1LjYxNTc0NSwyNy43MjUxNDA1IEwyODMuNjEyNTM2LDM3LjE1MTk4NzggQzI4Mi40MzQxODYsMzYuNTIzNTMxMyAyODAuNTg4MDk2LDM1Ljg5NTA3NDcgMjc4LjA3NDI2MywzNS4yNjY2MTgxIEMyNzUuNTYwNDQxLDM0LjU1OTYwNDUgMjcyLjUzNTk5NiwzNC4yMDYwOTc4IDI2OS4wMDA5MjgsMzQuMjA2MDk3OCBDMjY1LjkzNzIwMiwzNC4yMDYwOTc4IDI2My4yNjYyNjEsMzQuODM0NTU0NCAyNjAuOTg4MTA0LDM2LjA5MTQ2NzUgQzI1OC43MDk5NDgsMzcuMjY5ODIzOCAyNTcuNTcwODcsMzkuMTU1MTkzIDI1Ny41NzA4Nyw0MS43NDc1NzU0IEMyNTcuNTcwODcsNDMuMDgzMDQ1NSAyNTcuODA2NTQxLDQ0LjI2MTQwMTcgMjU4LjI3Nzg4Miw0NS4yODI2NDQgQzI1OC44Mjc3ODYsNDYuMzAzODg1NCAyNTkuNjEzMzYsNDcuMjQ2NTY5OCAyNjAuNjM0NjA2LDQ4LjExMDY5NzIgQzI2MS43MzQ0MDMsNDguODk2MjY3NyAyNjMuMDY5ODcxLDQ5LjY0MjU1OTcgMjY0LjY0MTAxLDUwLjM0OTU3MzIgQzI2Ni4yMTIxNDksNTEuMDU2NTg2OCAyNjguMDk3NTIxLDUxLjgwMjg3ODggMjcwLjI5NzEyNSw1Mi41ODg0NDkzIEMyNzMuMjAzNzM3LDUzLjY4ODI0ODYgMjc1Ljc5NjExNyw1NC43ODgwNDc4IDI3OC4wNzQyNjMsNTUuODg3ODQ3MSBDMjgwLjM1MjQyLDU2LjkwOTA4ODQgMjgyLjI3NzA2OCw1OC4xMjY3MjI3IDI4My44NDgyMDcsNTkuNTQwNzQ5NyBDMjg1LjQ5NzkwNyw2MC45NTQ3NzY4IDI4Ni43NTQ4MjQsNjIuNjgzMDMyMiAyODcuNjE4OTU1LDY0LjcyNTUxNTggQzI4OC40ODMwNzYsNjYuNjg5NDM4NiAyODguOTE1MTM3LDY5LjEyNDcwNjEgMjg4LjkxNTEzNyw3Mi4wMzEzMTgxIEMyODguOTE1MTM3LDc3LjY4NzQyODQgMjg2Ljc5NDEsODEuOTY4Nzg5NiAyODIuNTUyMDI0LDg0Ljg3NTQwMTcgQzI3OC4zODg1MDEsODcuNzgyMDEzOCAyNzIuNDE4MTYzLDg5LjIzNTMxOTggMjY0LjY0MTAxLDg5LjIzNTMxOTggQzI1OS40OTE1OTcsODkuMjM1MzE5OCAyNTUuNDA1NjQ5LDg4LjgwOTkzMzkgMjUyLjM4MzE2Niw4Ny45NTkxNjIyIEwyNDkuOTE1MjM0LDg3LjI0MzkzODggQzI0Ny45MjU3NTYsODYuNjUzODA3NSAyNDYuNTEwNTA2LDg2LjE3ODUyMjkgMjQ1LjY2OTQ4NCw4NS44MTgwODUxIEwyNDcuNjcyNjc5LDc2LjM5MTIzNjMgTDI0OS4xNzgzNjMsNzYuOTQxMTM0OSBDMjUwLjM0Nzk5NCw3Ny4zNjAxMDUzIDI1MS44NDkzMDksNzcuODgzODE4MyAyNTMuNjgyMzA4LDc4LjUxMjI3MzkgQzI1Ni4yNzAwNjIsNzkuMzk5NTE0NyAyNTkuNjU4MDcsNzkuODY5MjMwMyAyNjMuODQ2MzMzLDc5LjkyMTQyMSBMMjY0LjY0MTAxLDc5LjkyNjMxMzggWiBNMzEzLjEwODI1OSwyNi41NDY3ODQ4IEwzMzYuMzIxODYsMjYuNTQ2Nzg0OCBMMzM2LjMyMTg2LDM1LjczNzk2MTMgTDMxMy4xMDgyNTksMzUuNzM3OTYxMyBMMzEzLjEwODI1OSw2NC4wMTg1MDE4IEMzMTMuMTA4MjU5LDY3LjA4MjIyMjkgMzEzLjM0MzkyOSw2OS42MzUzMjg3IDMxMy44MTUyNzEsNzEuNjc3ODE5MyBDMzE0LjI4NjYxMyw3My42NDE3NDc5IDMxNC45OTM2MjUsNzUuMjEyODg3IDMxNS45MzYzMDksNzYuMzkxMjM2MyBDMzE2Ljg3ODk5Miw3Ny40OTEwMzM2IDMxOC4wNTczNDYsNzguMjc2NjAzMSAzMTkuNDcxMzcyLDc4Ljc0Nzk0NDggQzMyMC44ODU0MDcsNzkuMjE5Mjg2NSAzMjIuNTM1MTA3LDc5LjQ1NDk1NzMgMzI0LjQyMDQ3NCw3OS40NTQ5NTczIEMzMjcuNzE5ODY2LDc5LjQ1NDk1NzMgMzMwLjM1MTUyNiw3OS4xMDE0NTM1IDMzMi4zMTU0NTUsNzguMzk0NDQ1OSBMMzM2LjU1NzUzLDc2Ljc0NDc0OTkgTDMzOC42Nzg1ODMsODUuODE4MDg1MSBDMzM3LjU3ODc4Niw4Ni4zNjc5ODg3IDMzNS42NTQxMzgsODcuMDM1NzI1MiAzMzIuOTA0NjQsODcuODIxMjk0NyBDMzMwLjE1NTE0MSw4OC42ODU0MTYzIDMyNy4wMTI4NTksODkuMTE3NDc3IDMyMy40Nzc3OTEsODkuMTE3NDc3IEMzMTkuMzE0MjY4LDg5LjExNzQ3NyAzMTUuODU3NzU3LDg4LjYwNjg1OTMgMzEzLjEwODI1OSw4Ny41ODU2MjM5IEMzMTAuNDM3MzEyLDg2LjQ4NTgyNjYgMzA4LjI3Njk5NCw4NC44NzU0MDY2IDMwNi42MjczMDMsODIuNzU0MzY0IEMzMDQuOTc3NjAyLDgwLjYzMzMyMTUgMzAzLjc5OTI0Myw3OC4wNDA5MzcyIDMwMy4wOTIyMjUsNzQuOTc3MjExMiBDMzAyLjQ2Mzc3LDcxLjgzNDkzMzIgMzAyLjE0OTU0Miw2OC4yMjEzMDg1IDMwMi4xNDk1NDIsNjQuMTM2MzM3MiBMMzAyLjE0OTU0Miw5LjQ2MDYyNDQyIEwzMTMuMTA4MjU5LDcuNTc1MjU0NjUgTDMxMy4xMDgyNTksMjYuNTQ2Nzg0OCBaIE00MDUuNTMxODY4LDg3LjgyMTI5NDcgQzQwNC4xOTY0MDUsODQuMjg2MjI3IDQwMi45Mzk0OTQsODAuODI5NzE2MyA0MDEuNzYxMTM1LDc3LjQ1MTc2MjUgQzQwMC41ODI3NzUsNzMuOTk1MjQ2OCAzOTkuMzY1MTQsNzAuNDk5NDU1MSAzOTguMTA4MjI5LDY2Ljk2NDM4NzUgTDM2MS4xMDc4NjEsNjYuOTY0Mzg3NSBMMzUzLjY4NDIwNyw4Ny44MjEyOTQ3IEwzNDEuNzgyODIyLDg3LjgyMTI5NDcgTDM0NC40MjgxMDcsODAuNTc4MDE0MiBDMzQ1Ljk0MzEzNSw3Ni40NDgxNTc1IDM0Ny40MDkwNjUsNzIuNDg1MjMzNiAzNDguODI1ODk4LDY4LjY4OTI0MjcgTDM1Mi4yNjA3NTgsNTkuNTE3MTgyNyBDMzU0LjQzNTIxOCw1My43MzUzODMyIDM1Ni41NTk0MDIsNDguMjA0OTY2IDM1OC42MzMzMSw0Mi45MjU5MzExIEMzNjEuMDA3NDc1LDM3LjA2MDMzNzYgMzYzLjM1MDYwOCwzMS40NDMwMjMyIDM2NS42NjI3MDgsMjYuMDczOTg4IEwzNjYuNTI4MjkxLDI0LjA3MjIzNzkgQzM2OS4xMjA2NzUsMTguMDIzMzQzOCAzNzEuODMwODkyLDEyLjA1MzAwNzIgMzc0LjY1ODk0Miw2LjE2MTIyODA3IEwzODUuMTQ2MzE3LDYuMTYxMjI4MDcgQzM4Ny41MDMwMjYsMTEuMDcxMDQ0IDM4OS43Nzc5MDYsMTYuMDM1NDEzOCAzOTEuOTcwOTU4LDIxLjA1NDMzNzMgTDM5My4yNzY5NjksMjQuMDcyMjM3OSBDMzk1Ljg2OTM1MywzMC4wNDI1NzQgMzk4LjQ2MTczOCwzNi4zMjcxMzg0IDQwMS4wNTQxMjIsNDIuOTI1OTMxMSBDNDAzLjQ1Nzk2NSw0OC44NjQ4NDU0IDQwNS44OTM2MjUsNTUuMTIxOTE1NCA0MDguMzYxMTAzLDYxLjY5NzE0MSBMNDEwLjk3OTM2Myw2OC42ODkyNDI3IEM0MTMuMjA1ODE2LDc0LjY1NDM3MTMgNDE1LjU1MzUxMiw4MS4wMzE3MjIgNDE4LjAyMjQ1Myw4Ny44MjEyOTQ3IEw0MDUuNTMxODY4LDg3LjgyMTI5NDcgWiBNMzk0LjgwODgzNyw1Ny41Mzc1NDQ1IEMzOTIuMjk1MDA1LDUwLjcwMzA4IDM4OS43ODExNzcsNDQuMTA0Mjg2OCAzODcuMjY3MzU1LDM3Ljc0MTE2NSBDMzg0LjgzMjA4NSwzMS4yOTk0ODYyIDM4Mi4yNzg5ODEsMjUuMTMyNzU3MiAzNzkuNjA4MDQ1LDE5LjI0MDk3OCBDMzc2Ljg1ODU0NywyNS4xMzI3NTcyIDM3NC4yMjY4ODcsMzEuMjk5NDg2MiAzNzEuNzEzMDY0LDM3Ljc0MTE2NSBDMzY5LjI3Nzc5NCw0NC4xMDQyODY4IDM2Ni44NDI1MjMsNTAuNzAzMDggMzY0LjQwNzI1Myw1Ny41Mzc1NDQ1IEwzOTQuODA4ODM3LDU3LjUzNzU0NDUgWiBNNDUwLjY3NTc5Myw1LjMzNjM3ODYxIEM0NjEuODQzMjkzLDUuMzM2Mzc4NjEgNDcwLjQ3ODU4Myw3LjQyMTczMTE1IDQ3Ni41ODE2NjIsMTEuNTkyNDM2MiBMNDc3LjA3MDk1OCwxMS45MzUxNzEzIEM0ODMuMjc2OTcxLDE2LjI1NTgwOTUgNDg2LjM3OTk3OCwyMi43MzY3NjY4IDQ4Ni4zNzk5NzgsMzEuMzc4MDQzMSBDNDg2LjM3OTk3OCwzNi4wOTE0NjcgNDg1LjUxNTg0Nyw0MC4xMzcxNTU5IDQ4My43ODc1ODQsNDMuNTE1MTA5NyBDNDgyLjEzNzg5Myw0Ni44MTQ1MDY1IDQ3OS43MDI2MjgsNDkuNTI0NzI1MyA0NzYuNDgxNzg4LDUxLjY0NTc2NTkgQzQ3My4zMzk1LDUzLjY4ODI0ODYgNDY5LjQ5MDIwNCw1NS4xODA4MzI2IDQ2NC45MzM5MDEsNTYuMTIzNTE4IEM0NjAuMzc3NTg4LDU3LjA2NjIwMjQgNDU1LjIzMjEwMSw1Ny41Mzc1NDQ1IDQ0OS40OTc0MzgsNTcuNTM3NTQ0NSBMNDQwLjQyNDA4OCw1Ny41Mzc1NDQ1IEw0NDAuNDI0MDg4LDg3LjgyMTI5NDcgTDQyOC45OTQwNDUsODcuODIxMjk0NyBMNDI4Ljk5NDA0NSw3LjMzOTU4MzggQzQzMi4yMTQ4ODUsNi41NTQwMTMzMSA0MzUuNzg5MjI4LDYuMDQzMzkyMTUgNDM5LjcxNzA3Niw1LjgwNzcyMDMyIEM0NDMuMzIyODQ0LDUuNTI0OTE1MjkgNDQ2LjY0MjI3NSw1LjM2OTM3MjUzIDQ0OS42NzUzNjcsNS4zNDEwOTIwMyBMNDUwLjY3NTc5Myw1LjMzNjM3ODYxIFogTTQ1MS42MTg0NzYsMTUuMzUyNDAzMSBMNDQ5LjM5NjU3MiwxNS4zNjEyMTYzIEM0NDUuNTk3OTc3LDE1LjM5MjU1MjIgNDQyLjYwNzE0OSwxNS41MDc0NTAzIDQ0MC40MjQwODgsMTUuNzA1OTEwOCBMNDQwLjQyNDA4OCw0Ny43NTcxOTA5IEw0NDkuMDI2MDk3LDQ3Ljc1NzE5MDkgQzQ1Mi45NTM5NDQsNDcuNzU3MTkwOSA0NTYuNDg5MDEyLDQ3LjUyMTUxOTYgNDU5LjYzMTMsNDcuMDUwMTc2OSBDNDYyLjc3MzU3OCw0Ni41MDAyNzczIDQ2NS40MDUyMzgsNDUuNjM2MTQ5OCA0NjcuNTI2MjgxLDQ0LjQ1Nzc5NDYgQzQ2OS43MjU4NzUsNDMuMjAwODgxNCA0NzEuNDE0ODUyLDQxLjUxMTkwNDUgNDcyLjU5MzIxMSwzOS4zOTA4NjM5IEM0NzMuNzcxNTcxLDM3LjI2OTgyMzMgNDc0LjM2MDc1LDM0LjU1OTYwNDUgNDc0LjM2MDc1LDMxLjI2MDIwNzcgQzQ3NC4zNjA3NSwyOC4zMTQzMTg0IDQ3My44MDgzOTIsMjUuODUxNzM4OCA0NzIuNzAzNjc2LDIzLjg3MjQ2OTEgTDQ3Mi40NzUzNjksMjMuNDgzMDU5MyBDNDcxLjI5NzAxOSwyMS40NDA1NzU2IDQ2OS42NDczMjMsMTkuODMwMTU1NyA0NjcuNTI2MjgxLDE4LjY1MTc5OTQgQzQ2NS40ODM4LDE3LjM5NDg4NzIgNDYzLjA4NzgxMSwxNi41MzA3NTk4IDQ2MC4zMzgzMTIsMTYuMDU5NDE3MSBDNDU3LjU4ODgxNCwxNS41ODgwNzQ0IDQ1NC42ODIyMDIsMTUuMzUyNDAzMSA0NTEuNjE4NDc2LDE1LjM1MjQwMzEgWiBNNTAwLjU2OTk1Niw2LjE2MTIyODA3IEw1MTIsNi4xNjEyMjgwNyBMNTEyLDg3LjgyMTI5NDcgTDUwMC41Njk5NTYsODcuODIxMjk0NyBMNTAwLjU2OTk1Niw2LjE2MTIyODA3IFoiLz4KICAgIDwvZz4KPC9zdmc+;" parent="1" vertex="1">
          <mxGeometry x="110" y="260" width="223.75" height="41.52" as="geometry" />
        </mxCell>
        <mxCell id="26" style="edgeStyle=orthogonalEdgeStyle;html=1;fontSize=28;exitX=0;exitY=0.508;exitDx=0;exitDy=0;exitPerimeter=0;" parent="1" source="32" target="7" edge="1">
          <mxGeometry relative="1" as="geometry">
            <Array as="points" />
          </mxGeometry>
        </mxCell>
        <mxCell id="30" style="edgeStyle=orthogonalEdgeStyle;html=1;fontSize=28;" parent="1" target="4" edge="1">
          <mxGeometry relative="1" as="geometry">
            <mxPoint x="1500" y="404" as="sourcePoint" />
          </mxGeometry>
        </mxCell>
        <mxCell id="31" style="edgeStyle=orthogonalEdgeStyle;html=1;entryX=1;entryY=0.5;entryDx=0;entryDy=0;fontSize=28;exitX=-0.001;exitY=0.518;exitDx=0;exitDy=0;exitPerimeter=0;" parent="1" source="32" target="5" edge="1">
          <mxGeometry relative="1" as="geometry">
            <mxPoint x="1500" y="405" as="sourcePoint" />
          </mxGeometry>
        </mxCell>
        <mxCell id="3" value="" style="shape=image;verticalLabelPosition=bottom;labelBackgroundColor=default;verticalAlign=top;aspect=fixed;imageAspect=0;image=data:image/svg+xml,PHN2ZyB4bWxuczp4bGluaz0iaHR0cDovL3d3dy53My5vcmcvMTk5OS94bGluayIgeG1sbnM9Imh0dHA6Ly93d3cudzMub3JnLzIwMDAvc3ZnIiBoZWlnaHQ9IjYwIiB3aWR0aD0iMTIwIiB4bWw6c3BhY2U9InByZXNlcnZlIiB2aWV3Qm94PSIwIDAgMTIwIDYwIiB5PSIwcHgiIHg9IjBweCIgaWQ9IkxheWVyXzEiIHZlcnNpb249IjEuMSI+PG1ldGFkYXRhIGlkPSJtZXRhZGF0YTU2Ij5pbWFnZS9zdmcreG1sPC9tZXRhZGF0YT48ZGVmcyBpZD0iZGVmczU0Ij4KCQoKCQk8ZGVmcyBpZD0iZGVmczUiPgoJCQk8cmVjdCBoZWlnaHQ9IjU2MzYuMjAwMiIgd2lkdGg9IjQzNTUuMjAwMiIgeT0iLTE0MTIuMiIgeD0iLTg0OS43MDAwMSIgaWQ9IlNWR0lEXzFfIi8+CgkJPC9kZWZzPgoJCTxjbGlwUGF0aCBpZD0iU1ZHSURfMl8iPgoJCQk8dXNlIGhlaWdodD0iMTAwJSIgd2lkdGg9IjEwMCUiIHk9IjAiIHg9IjAiIGlkPSJ1c2U3IiBzdHlsZT0ib3ZlcmZsb3c6dmlzaWJsZSIgeGxpbms6aHJlZj0iI1NWR0lEXzFfIi8+CgkJPC9jbGlwUGF0aD4KCQkKCQkKCQoJCQk8ZGVmcyBpZD0iZGVmczMzIj4KCQkJCTxwYXRoIGlkPSJTVkdJRF81XyIgZD0ibSAxMjI5LjYsMzI4LjYgYyAwLDAgLTAuNywyLjkgLTEuNiw3LjggLTguMywyLjQgLTE2LjYsNC43IC0yNC45LDcuNCAtMTEuNSwzLjUgLTIyLjgsNy43IC0zNC4zLDExLjggLTExLjMsNC40IC0yMi44LDguOCAtMzQsMTMuOCAtMjIuNiw5LjcgLTQ1LDIwLjYgLTY2LjksMzIuOSAtMjEuMiwxMS45IC00Mi4xLDI1IC02Mi40LDM5LjIgLTIuOSwtMS40IC01LjIsLTIuNCAtNS4yLC0yLjQgLTIwNy4zLC03OS4yIC0zOTEuNCwxNi4xIC0zOTEuNCwxNi4xIC0xNi44LDIyMC41IDgyLjgsMzU5LjUgMTAyLjUsMzg0LjcgLTQuOSwxMy42IC05LjUsMjcuNCAtMTMuNyw0MS4zIC0xNS4zLDUwIC0yNi44LDEwMS4zIC0zMy45LDE1NC4zIC0xLDcuNiAtMS45LDE1LjMgLTIuOCwyMyAtMTkxLjUsOTQuNiAtMjQ4LjMsMjg4LjUgLTI0OC4zLDI4OC41IDE1OS45LDE4My45IDM0Ni4zLDE5NS4zIDM0Ni4zLDE5NS4zIDAuMiwtMC4xIDAuMywtMC4zIDAuNSwtMC40IDIzLjcsNDIuMyA1MS4xLDgyLjYgODIsMTIwLjEgMTIuOSwxNS43IDI2LjUsMzAuOSA0MC42LDQ1LjYgLTU4LjMsMTY2LjcgOC4yLDMwNS40IDguMiwzMDUuNCAxNzgsNi43IDI5NC45LC03Ny45IDMxOS41LC05Ny40IDE3LjcsNiAzNS43LDExLjMgNTMuOCwxNiA1NC43LDE0LjEgMTEwLjcsMjIuNCAxNjYuNywyNC44IDE0LDAuNiAyOCwwLjkgNDEuOSwwLjggaCA2LjggbCA0LjQsLTAuMSA4LjgsLTAuMyA4LjcsLTAuNCAwLjIsMC4zIGMgODMuOCwxMTkuNiAyMzEuMywxMzYuNSAyMzEuMywxMzYuNSAxMDQuOSwtMTEwLjYgMTEwLjksLTIyMC4zIDExMC45LC0yNDQgdiAwIGMgMCwwIDAsLTAuOCAwLC0xLjYgMCwtMiAtMC4xLC0zLjMgLTAuMSwtMy4zIDAsMCAwLDAgMCwwIC0wLjEsLTEuNyAtMC4xLC0zLjMgLTAuMywtNS4xIDIyLC0xNS40IDQzLC0zMiA2Mi45LC00OS44IDQyLC0zOCA3OC43LC04MS4yIDEwOS4xLC0xMjcuOSAyLjksLTQuNCA1LjcsLTguOCA4LjQsLTEzLjMgMTE4LjcsNi44IDIwMi40LC03My41IDIwMi40LC03My41IC0xOS43LC0xMjMuNyAtOTAuMiwtMTg0IC0xMDQuOSwtMTk1LjQgdiAwIGMgMCwwIC0wLjYsLTAuNSAtMS41LC0xLjEgLTAuOCwtMC42IC0xLjQsLTEgLTEuNCwtMSAwLDAgMCwwIDAsMCAtMC43LC0wLjUgLTEuNiwtMS4xIC0yLjYsLTEuNyAwLjcsLTcuNSAxLjQsLTE0LjkgMS44LC0yMi4zIDAuOSwtMTMuMyAxLjIsLTI2LjcgMS4zLC0zOS45IGwgLTAuMSwtOS45IC0wLjEsLTUgdiAtMi41IGMgMCwtMy40IC0wLjEsLTIuMSAtMC4xLC0zLjQgbCAtMC40LC04LjMgLTAuNiwtMTEuMiBjIC0wLjIsLTMuOSAtMC41LC03LjIgLTAuOCwtMTAuNyAtMC4zLC0zLjQgLTAuNiwtNi45IC0xLC0xMC4zIGwgLTEuMiwtMTAuMyAtMS40LC0xMC4yIGMgLTIsLTEzLjYgLTQuNiwtMjcuMSAtNy43LC00MC40IC0xMi40LC01My4zIC0zMy4yLC0xMDMuOSAtNjAuNywtMTQ5LjQgLTI3LjUsLTQ1LjUgLTYxLjcsLTg1LjggLTEwMC4yLC0xMTkuNyAtMzguNSwtMzQgLTgxLjcsLTYxLjMgLTEyNywtODEuNyAtNDUuMywtMjAuNCAtOTIuOSwtMzMuNSAtMTQwLjMsLTM5LjUgLTIzLjcsLTMuMSAtNDcuMywtNC4zIC03MC43LC00IGwgLTguNywwLjIgLTIuMiwwLjEgYyAtMC42LDAgLTMuMywwLjEgLTMsMC4xIGwgLTMuNiwwLjIgLTguNywwLjYgYyAtMy4zLDAuMiAtNi43LDAuNSAtOS42LDAuOCAtMTIsMS4yIC0yMy45LDIuOCAtMzUuNyw1IC00Nyw4LjggLTkxLjQsMjUuOCAtMTMwLjUsNDkuMiAtMzkuMSwyMy40IC03My4xLDUyLjcgLTEwMC44LDg1LjkgLTI3LjYsMzMuMSAtNDkuMSw2OS44IC02My45LDEwNy44IC0xNC44LDM4IC0yMy4xLDc3LjIgLTI1LjQsMTE1LjMgLTAuNiw5LjUgLTAuOCwxOSAtMC42LDI4LjQgMCwyLjMgMC4xLDQuNyAwLjIsNyBsIDAuMyw3LjYgYyAwLjMsNC42IDAuNyw5LjEgMS4xLDEzLjYgMS45LDE5LjMgNS40LDM3LjggMTAuNiw1NS43IDEwLjMsMzUuNyAyNi45LDY4IDQ3LjMsOTUuNCAyMC40LDI3LjUgNDQuOCw1MC4yIDcwLjcsNjcuOSAyNS45LDE3LjcgNTMuNiwzMC40IDgxLDM4LjUgMjcuNSw4LjEgNTQuOCwxMS42IDgwLjUsMTEuNSAzLjIsMCA2LjQsLTAuMSA5LjYsLTAuMiAxLjcsMCAzLjQsLTAuMiA1LjEsLTAuMiAxLjcsLTAuMSAzLjQsLTAuMiA1LjEsLTAuMyAyLjcsLTAuMyA1LjUsLTAuNSA4LjIsLTAuOCAwLjYsMCAxLjUsLTAuMiAyLjMsLTAuMyBsIDIuNSwtMC4zIGMgMS43LC0wLjIgMy4zLC0wLjUgNSwtMC43IDMuNCwtMC40IDYuMywtMS4xIDkuMywtMS42IDMsLTAuNiA2LC0xLjIgOSwtMiA1LjksLTEuMyAxMS42LC0zLjEgMTcuMywtNC44IDExLjIsLTMuNyAyMS43LC04LjIgMzEuNSwtMTMuMiA5LjgsLTUgMTguOCwtMTAuNyAyNy4yLC0xNi42IDIuNCwtMS43IDQuNywtMy41IDcsLTUuMyA5LC03IDEwLjQsLTIwLjIgMy4yLC0yOSAtNi4zLC03LjcgLTE3LjEsLTkuNyAtMjUuNywtNC45IC0yLjEsMS4yIC00LjMsMi4zIC02LjUsMy40IC03LjUsMy42IC0xNS4zLDcgLTIzLjYsOS43IC04LjMsMi42IC0xNi45LDQuOCAtMjUuOSw2LjQgLTQuNSwwLjYgLTksMS4zIC0xMy42LDEuNyAtMi4zLDAuMyAtNC42LDAuNCAtNywwLjQgLTIuMywwLjEgLTQuOCwwLjMgLTYuOSwwLjIgLTIuMiwwIC00LjQsLTAuMSAtNi43LC0wLjEgLTIuOCwtMC4xIC01LjYsLTAuMyAtOC40LC0wLjQgMCwwIC0xLjQsMCAtMC4zLC0wLjEgbCAtMC45LC0wLjEgLTEuOSwtMC4yIGMgLTEuMywtMC4xIC0yLjUsLTAuMiAtMy44LC0wLjQgLTIuNSwtMC4zIC01LC0wLjYgLTcuNSwtMSAtMjAuMSwtMi44IC00MC41LC04LjcgLTYwLjEsLTE3LjYgLTE5LjcsLTguOSAtMzguNSwtMjEuMSAtNTUuNSwtMzYuNCAtMTcsLTE1LjIgLTMxLjgsLTMzLjYgLTQzLjQsLTU0LjQgLTExLjYsLTIwLjcgLTE5LjcsLTQzLjggLTIzLjUsLTY4IC0xLjksLTEyLjEgLTIuNywtMjQuNiAtMi40LC0zNi44IDAuMiwtMy40IDAuMywtNi43IDAuNSwtMTAuMSAwLDAuOSAwLjEsLTAuNSAwLjEsLTAuNiBsIDAuMSwtMS4yIDAuMiwtMi41IGMgMC4xLC0xLjcgMC4zLC0zLjMgMC41LC01IDAuNywtNi42IDEuNywtMTMuMyAyLjksLTE5LjggOS4zLC01Mi43IDM1LjcsLTEwNC4xIDc2LjUsLTE0My4yIDEwLjIsLTkuNyAyMS4yLC0xOC44IDMyLjksLTI2LjggMTEuNywtOCAyNC4yLC0xNS4yIDM3LjIsLTIxLjIgMTMsLTYgMjYuNiwtMTAuOSA0MC41LC0xNC43IDEzLjksLTMuNyAyOC4yLC02LjIgNDIuNywtNy41IDcuMiwtMC42IDE0LjUsLTAuOSAyMS44LC0wLjkgMS45LDAgMy40LDAuMSA0LjksMC4xIGwgNS45LDAuMiAzLjcsMC4xIGMgMS41LDAgMCwwIDAuNywwLjEgbCAxLjUsMC4xIDUuOSwwLjQgYyAxNS43LDEuMyAzMS40LDMuNSA0Ni44LDcgMzAuOSw2LjkgNjAuOSwxOC4yIDg4LjksMzMuNyA1NiwzMSAxMDMuNyw3OS41IDEzMywxMzggMTQuOCwyOS4xIDI1LDYwLjUgMzAuMiw5Mi45IDEuMiw4LjEgMi4yLDE2LjMgMi45LDI0LjUgbCAwLjUsNi4yIDAuMyw2LjIgYyAwLjEsMi4xIDAuMSw0LjEgMC4yLDYuMiAwLDIgMC4xLDQuMyAwLjEsNS44IHYgNS4zIGwgLTAuMSw2IGMgLTAuMiw0IC0wLjUsMTAuNSAtMC43LDE0LjUgLTAuNyw4LjkgLTEuNCwxNy45IC0yLjYsMjYuOCAtMS4xLDguOCAtMi42LDE3LjYgLTQuMiwyNi40IC0xLjgsOC43IC0zLjYsMTcuNCAtNS45LDI2IC00LjMsMTcuMyAtOS45LDM0LjIgLTE2LjQsNTAuOCAtMTMuMSwzMy4yIC0zMC42LDY0LjcgLTUxLjcsOTMuOCAtNDIuMyw1OC4xIC0xMDAsMTA1LjYgLTE2NS42LDEzNS40IC0zMi44LDE0LjggLTY3LjQsMjUuNyAtMTAzLDMxLjYgLTE3LjgsMyAtMzUuOCw0LjggLTUzLjgsNS40IGwgLTMuMywwLjEgaCAtMi45IGwgLTUuOCwwLjEgaCAtOC45IC00LjQgYyAyLjUsMCAtMC40LDAgLTAuMywtMC4xIGwgLTEuOCwtMC4xIGMgLTkuNywtMC4yIC0xOS4zLC0wLjcgLTI4LjksLTEuNCAtMzguNSwtMi45IC03Ni42LC05LjcgLTExMy41LC0yMC41IC0zNi45LC0xMC43IC03Mi43LC0yNSAtMTA2LjYsLTQzIC02Ny43LC0zNi4yIC0xMjguMiwtODUuOCAtMTc1LjYsLTE0NS42IC0yMy44LC0yOS44IC00NC42LC02MS44IC02MS44LC05NS41IC0xNy4yLC0zMy43IC0zMC43LC02OSAtNDAuNywtMTA1LjEgLTkuOSwtMzYuMSAtMTYuMSwtNzMuMSAtMTguNSwtMTEwLjMgbCAtMC40LC03IC0wLjEsLTEuNyB2IC0xLjUgbCAtMC4xLC0zLjEgLTAuMiwtNi4xIC0wLjEsLTEuNSB2IC0yLjEgLTQuMyBsIC0wLjEsLTguNyB2IC0xLjcgYyAwLDAuMyAwLDAuMyAwLC0wLjYgdiAtMy40IGMgMCwtNC41IDAuMiwtOS4xIDAuMywtMTMuNiAwLjcsLTE4LjQgMi4yLC0zNy4zIDQuNiwtNTYuMiAyLjQsLTE4LjkgNS41LC0zNy45IDkuNCwtNTYuOCAzLjksLTE4LjggOC41LC0zNy41IDEzLjcsLTU1LjggMTAuNSwtMzYuNyAyMy42LC03Mi4zIDM5LjEsLTEwNS45IDMxLjEsLTY3LjMgNzEuOSwtMTI2LjYgMTIwLjksLTE3NC40IDEyLjIsLTEyIDI0LjksLTIzLjMgMzguMSwtMzMuOSAxMy4yLC0xMC42IDI2LjksLTIwLjQgNDEsLTI5LjYgMTQsLTkuMyAyOC41LC0xNy43IDQzLjQsLTI1LjUgNy40LC00IDE1LC03LjUgMjIuNiwtMTEuMiAzLjgsLTEuNyA3LjcsLTMuNCAxMS41LC01LjEgMy44LC0xLjcgNy43LC0zLjQgMTEuNiwtNC45IDE1LjUsLTYuNiAzMS41LC0xMi4xIDQ3LjUsLTE3LjMgNC4xLC0xLjIgOC4xLC0yLjUgMTIuMSwtMy43IDQsLTEuMyA4LjIsLTIuMiAxMi4yLC0zLjQgOC4xLC0yLjMgMTYuNCwtNC4yIDI0LjYsLTYuMyA0LjEsLTEuMSA4LjMsLTEuOCAxMi40LC0yLjcgNC4yLC0wLjkgOC4zLC0xLjggMTIuNSwtMi42IDQuMiwtMC44IDguNCwtMS41IDEyLjUsLTIuMyBsIDYuMywtMS4xIDYuMywtMSBjIDQuMiwtMC42IDguNCwtMS4zIDEyLjYsLTEuOSA0LjcsLTAuOCA5LjUsLTEuMiAxNC4yLC0xLjkgMy45LC0wLjUgMTAuMiwtMS4yIDE0LjEsLTEuNyAzLC0wLjMgNS45LC0wLjYgOC45LC0wLjkgbCA1LjksLTAuNiAzLC0wLjMgMy41LC0wLjIgYyA0LjgsLTAuMyA5LjUsLTAuNiAxNC4zLC0wLjkgbCA3LjEsLTAuNSBjIDAsMCAyLjYsLTAuMSAwLjMsLTAuMSBsIDEuNSwtMC4xIDMsLTAuMSBjIDQuMSwtMC4yIDguMSwtMC40IDEyLjIsLTAuNiAxNi4yLC0wLjUgMzIuMywtMC41IDQ4LjIsMCAzMS45LDEuMyA2My4yLDQuOCA5My42LDEwLjQgNjAuOSwxMS4zIDExOC4yLDMwLjkgMTcwLDU2LjUgNTEuOSwyNS40IDk4LjQsNTYuNiAxMzguOCw5MC41IDIuNSwyLjEgNSw0LjMgNy41LDYuNCAyLjUsMi4yIDQuOSw0LjMgNy4zLDYuNSA0LjksNC4zIDkuNiw4LjggMTQuMywxMy4xIDQuNyw0LjQgOS4yLDguOSAxMy44LDEzLjMgNC40LDQuNSA4LjksOC45IDEzLjIsMTMuNSAxNy4xLDE4LjEgMzMsMzYuNSA0Ny4zLDU1IDI4LjcsMzYuOSA1MS42LDc0LjEgNjkuOSwxMDkuMyAxLjIsMi4yIDIuMyw0LjQgMy40LDYuNiAxLjEsMi4yIDIuMiw0LjQgMy4yLDYuNiAyLjEsNC4zIDQuMyw4LjYgNi4yLDEyLjkgMiw0LjMgNCw4LjUgNS45LDEyLjcgMS44LDQuMiAzLjYsOC40IDUuNCwxMi40IDYuOCwxNi41IDEzLDMyLjEgMTguMSw0NyA4LjQsMjMuOSAxNC41LDQ1LjUgMTkuMyw2NC4yIDEuOSw3LjUgOSwxMi41IDE2LjcsMTEuOCA4LC0wLjcgMTQuMSwtNy4zIDE0LjMsLTE1LjMgMC40LC0yMC4xIC0wLjEsLTQzLjggLTIuNCwtNzAuOCAtMywtMzMuNCAtOC43LC03Mi4xIC0yMCwtMTE0LjYgLTExLjEsLTQyLjUgLTI3LjYsLTg5IC01MS42LC0xMzcuMyAtMjQuMSwtNDguMiAtNTUuNSwtOTguNCAtOTYuMywtMTQ2LjkgLTE1LjksLTE5IC0zMy4zLC0zNy44IC01Mi4xLC01Ni4xIDI4LC0xMTEuNCAtMzQuMSwtMjA4IC0zNC4xLC0yMDggLTEwNy4yLC02LjcgLTE3NS40LDMzLjMgLTIwMC43LDUxLjYgLTQuMiwtMS44IC04LjUsLTMuNiAtMTIuOCwtNS40IC0xOC4zLC03LjQgLTM3LC0xNC4zIC01Ni4zLC0yMC40IC0xOS4zLC02LjEgLTM5LC0xMS43IC01OS4xLC0xNi40IC0yMC4yLC00LjcgLTQwLjcsLTguNyAtNjEuNiwtMTEuOSAtMy43LC0wLjUgLTcuMywtMSAtMTEsLTEuNiAtNDYuNiwtMTQ5LjQgLTE4MC45LC0yMTEuOSAtMTgwLjksLTIxMS45IC0xNDkuOCw5NC41IC0xNzguMywyMjcuNCAtMTc4LjMsMjI3LjQiLz4KCQkJPC9kZWZzPgoJCQk8Y2xpcFBhdGggaWQ9IlNWR0lEXzZfIj4KCQkJCTx1c2UgeGxpbms6aHJlZj0iI1NWR0lEXzVfIiBzdHlsZT0ib3ZlcmZsb3c6dmlzaWJsZSIgaWQ9InVzZTM1IiB4PSIwIiB5PSIwIiB3aWR0aD0iMTAwJSIgaGVpZ2h0PSIxMDAlIi8+CgkJCTwvY2xpcFBhdGg+CgkJCQoJCQkJPGxpbmVhckdyYWRpZW50IGlkPSJTVkdJRF83XyIgZ3JhZGllbnRVbml0cz0idXNlclNwYWNlT25Vc2UiIHgxPSItODE5Ljc2NTAxIiB5MT0iODIwMS43MSIgeDI9Ii04MTIuNjQ4NjgiIHkyPSI4MjAxLjcxIiBncmFkaWVudFRyYW5zZm9ybT0ibWF0cml4KDAsLTI1NS43NzQyLC0yNTUuNzc0MiwwLDIwOTkxMTUuNSwtMjA3MTMzLjU1KSI+CgkJCQk8c3RvcCBvZmZzZXQ9IjAiIHN0eWxlPSJzdG9wLWNvbG9yOiNGRkYyMDAiIGlkPSJzdG9wMzgiLz4KCQkJCTxzdG9wIG9mZnNldD0iMSIgc3R5bGU9InN0b3AtY29sb3I6I0YxNUEyOSIgaWQ9InN0b3A0MCIvPgoJCQk8L2xpbmVhckdyYWRpZW50PgoJCQkKCQkKCQkJPGRlZnMgaWQ9ImRlZnMxMSI+CgkJCQk8cmVjdCBpZD0iU1ZHSURfM18iIHg9Ii04NDkuNzAwMDEiIHk9Ii0xNDEyLjIiIHdpZHRoPSI0MzU1LjIwMDIiIGhlaWdodD0iNTYzNi4yMDAyIi8+CgkJCTwvZGVmcz4KCQkJPGNsaXBQYXRoIGlkPSJTVkdJRF80XyI+CgkJCQk8dXNlIHhsaW5rOmhyZWY9IiNTVkdJRF8zXyIgc3R5bGU9Im92ZXJmbG93OnZpc2libGUiIGlkPSJ1c2UxMyIgeD0iMCIgeT0iMCIgd2lkdGg9IjEwMCUiIGhlaWdodD0iMTAwJSIvPgoJCQk8L2NsaXBQYXRoPgoJCQkKCQkJCgkJCQoJCQkKCQkJCgkJCQoJCQkKCQk8L2RlZnM+CjxzdHlsZSBpZD0ic3R5bGUyIiB0eXBlPSJ0ZXh0L2NzcyI+Cgkuc3Qwe2ZpbGw6I0M1OUE2RTt9Cgkuc3Qxe2ZpbGw6IzNDQjQ0Qjt9Cgkuc3Qye2ZpbGw6IzY3MzA4Rjt9Cgkuc3Qze2ZpbGw6I0QxRDFEMTt9Cgkuc3Q0e2ZpbGw6I0VGNUIyODt9Cgkuc3Q1e3N0cm9rZTojMDAwMDAwO3N0cm9rZS13aWR0aDoxNjtzdHJva2UtbWl0ZXJsaW1pdDoxMDt9Cgkuc3Q2e2ZpbGw6dXJsKCNUcmlhbmdsZS0zXzFfKTt9Cgkuc3Q3e2ZpbGw6IzMzMzMzMzt9Cgkuc3Q4e2ZpbGw6I0NGMjEyOTt9Cgkuc3Q5e2ZpbGw6I0NDMzgzMjt9Cgkuc3QxMHtmaWxsOiNCQTQ0M0Q7fQoJLnN0MTF7ZmlsbDojQkFDNTU2O30KCS5zdDEye2ZpbGw6I0Y4REY0Qjt9Cgkuc3QxM3tmaWxsOiNGNUNGNDc7fQoJLnN0MTR7ZmlsbDojQTlCNzVEO30KCS5zdDE1e2ZpbGw6I0REQkU1Qjt9Cgkuc3QxNntmaWxsOiM2RkJFQ0I7fQoJLnN0MTd7ZmlsbDojNzlDMEJGO30KCS5zdDE4e2ZpbGw6Izc3QzNEMjt9Cgkuc3QxOXtmaWxsOiM1Q0I4QkI7fQoJLnN0MjB7ZmlsbDojNTI5RkI1O30KCS5zdDIxe2ZpbGw6I0JBM0QzNjt9Cgkuc3QyMntmaWxsOiM5RDM2MzQ7fQoJLnN0MjN7ZmlsbDojRDMzRTM1O30KCS5zdDI0e2ZpbGw6Izg2OUI2Mzt9Cgkuc3QyNXtmaWxsOiNCRUM1NEY7fQoJLnN0MjZ7ZmlsbDojOUVBRDU5O30KCS5zdDI3e2ZpbGw6bm9uZTt9Cgkuc3QyOHtmaWxsOiM0M0FFMkE7fQoJLnN0Mjl7ZmlsbDojMDA5REREO30KCS5zdDMwe2ZpbGw6IzAwQTI5Nzt9Cgkuc3QzMXtmaWxsOiMwMDcyQ0M7fQoJLnN0MzJ7ZmlsbDojODJCQjAwO30KCS5zdDMze2ZpbGw6IzEwMDY5RDt9Cgkuc3QzNHtmaWxsOiMzMzNGNDg7fQoJLnN0MzV7Y2xpcC1wYXRoOnVybCgjU1ZHSURfMl8pO30KCS5zdDM2e2NsaXAtcGF0aDp1cmwoI1NWR0lEXzRfKTtmaWxsOiM0MTQwNDI7fQoJLnN0Mzd7Y2xpcC1wYXRoOnVybCgjU1ZHSURfNl8pO2ZpbGw6dXJsKCNTVkdJRF83Xyk7fQo8L3N0eWxlPgo8ZyB0cmFuc2Zvcm09InRyYW5zbGF0ZSgtMC4wODQ5NTYxKSIgaWQ9Imc5NTgiPjxnIGlkPSJnOTQ2IiB0cmFuc2Zvcm09Im1hdHJpeCgwLjY0ODIyMzMsMCwwLDAuNjQ4MjIzMyw5Ljg5NTcxOTQsNzMuNDQ5NDc1KSI+PHBhdGggdHJhbnNmb3JtPSJtYXRyaXgoMC4wMzkzNzkzOCwwLDAsMC4wMzkzNzkzOCw1Ny43MzMyOTksLTE2Mi45NzEwNCkiIGNsYXNzPSJzdDM2IiBkPSJNIDU3MS41LDI0NDYuMSBDIDU2NiwyNTg3LjcgNDU0LjMsMjY5OCAzMTUuNSwyNjk4IDE2OSwyNjk4IDYwLjEsMjU3OS40IDYwLjEsMjQzNi40IGMgMCwtMTQ0LjQgMTE3LjksLTI2MyAyNjEuNiwtMjYzIDY0LjksMCAxMjguNCwyNy45IDE4Mi4xLDc4LjEgbCAtNDEuOSw1MS42IGMgLTQxLjIsLTM1LjYgLTkwLjcsLTYwIC0xNDAuMiwtNjAgLTEwNS40LDAgLTE5MS45LDg2LjUgLTE5MS45LDE5My4zIDAsMTA4LjEgODEuNiwxOTEuOSAxODUuNiwxOTEuOSA5My41LDAgMTY2LjgsLTY4LjQgMTgxLjQsLTE1Ni4zIGggLTIxMiB2IC02Mi4xIGggMjg2LjggdiAzNi4yIHoiIGNsaXAtcGF0aD0idXJsKCNTVkdJRF80XykiIGlkPSJwYXRoMTYiIHN0eWxlPSJmaWxsOiM0MTQwNDIiLz48cGF0aCB0cmFuc2Zvcm09Im1hdHJpeCgwLjAzOTM3OTM4LDAsMCwwLjAzOTM3OTM4LDU3LjczMzI5OSwtMTYyLjk3MTA0KSIgY2xhc3M9InN0MzYiIGQ9Im0gODE1LDI0MTEuOSBoIC0zOS4xIGMgLTQzLjIsMCAtNzguMSwzNSAtNzguMSw3OC4xIHYgMjAzLjcgSCA2MjggdiAtMzQ4LjkgaCA1Ny4yIHYgMjkuMyBjIDE4LjgsLTE4LjggNDguOCwtMjkuMyA4Mi4zLC0yOS4zIGggNzUuMyB6IiBjbGlwLXBhdGg9InVybCgjU1ZHSURfNF8pIiBpZD0icGF0aDE4IiBzdHlsZT0iZmlsbDojNDE0MDQyIi8+PHBhdGggdHJhbnNmb3JtPSJtYXRyaXgoMC4wMzkzNzkzOCwwLDAsMC4wMzkzNzkzOCw1Ny43MzMyOTksLTE2Mi45NzEwNCkiIGNsYXNzPSJzdDM2IiBkPSJtIDExOTUuMiwyNjkzLjggaCAtNTkuMyB2IC00NCBjIC00NS45LDQ0LjggLTExOC4yLDY2LjMgLTE5MS41LDM0LjEgLTU0LjMsLTIzLjkgLTk0LjcsLTczLjQgLTEwNS41LC0xMzEuOCAtMjAuOCwtMTEyLjggNjYsLTIxMi45IDE3Ni45LC0yMTIuOSA0Ni43LDAgODguNiwxOC44IDExOS4zLDQ5LjUgdiAtNDQgaCA2MCB2IDM0OS4xIHogbSAtNzEuNCwtMTQ5LjQgYyAxNi41LC03MC45IC0zNy4yLC0xMzUuMyAtMTA3LjIsLTEzNS4zIC02MC43LDAgLTEwOS41LDQ5LjUgLTEwOS41LDEwOS41IDAsNjcuOSA1OS43LDEyMC40IDEyOS4xLDEwOC42IDQyLjcsLTcuMyA3Ny44LC00MC41IDg3LjYsLTgyLjgiIGNsaXAtcGF0aD0idXJsKCNTVkdJRF80XykiIGlkPSJwYXRoMjAiIHN0eWxlPSJmaWxsOiM0MTQwNDIiLz48cGF0aCB0cmFuc2Zvcm09Im1hdHJpeCgwLjAzOTM3OTM4LDAsMCwwLjAzOTM3OTM4LDU3LjczMzI5OSwtMTYyLjk3MTA0KSIgY2xhc3M9InN0MzYiIGQ9Im0gMTMzNS44LDIzMjUuNCB2IDE5LjUgaCAxMTAuOSB2IDYxLjQgaCAtMTEwLjkgdiAyODcuNSBoIC02OS4xIHYgLTM2Ni4zIGMgMCwtNzYuOCA1NS4xLC0xMjIuMSAxMjQuMiwtMTIyLjEgaCA4My43IGwgLTI3LjksNjUuNiBIIDEzOTEgYyAtMzAuNywwIC01NS4yLDI0LjQgLTU1LjIsNTQuNCIgY2xpcC1wYXRoPSJ1cmwoI1NWR0lEXzRfKSIgaWQ9InBhdGgyMiIgc3R5bGU9ImZpbGw6IzQxNDA0MiIvPjxwYXRoIHRyYW5zZm9ybT0ibWF0cml4KDAuMDM5Mzc5MzgsMCwwLDAuMDM5Mzc5MzgsNTcuNzMzMjk5LC0xNjIuOTcxMDQpIiBjbGFzcz0ic3QzNiIgZD0ibSAxODE2LjUsMjY5My44IGggLTU5LjMgdiAtNDQgYyAtNDUuOSw0NC44IC0xMTguMiw2Ni4zIC0xOTEuNSwzNC4xIC01NC4zLC0yMy45IC05NC43LC03My40IC0xMDUuNSwtMTMxLjggLTIwLjgsLTExMi44IDY2LC0yMTIuOSAxNzYuOSwtMjEyLjkgNDYuNywwIDg4LjYsMTguOCAxMTkuMyw0OS41IHYgLTQ0IGggNjAgdiAzNDkuMSB6IG0gLTcxLjMsLTE0OS40IGMgMTYuNSwtNzAuOSAtMzcuMiwtMTM1LjMgLTEwNy4yLC0xMzUuMyAtNjAuNywwIC0xMDkuNSw0OS41IC0xMDkuNSwxMDkuNSAwLDY3LjkgNTkuNywxMjAuNCAxMjkuMSwxMDguNiA0Mi42LC03LjMgNzcuOCwtNDAuNSA4Ny42LC04Mi44IiBjbGlwLXBhdGg9InVybCgjU1ZHSURfNF8pIiBpZD0icGF0aDI0IiBzdHlsZT0iZmlsbDojNDE0MDQyIi8+PHBhdGggdHJhbnNmb3JtPSJtYXRyaXgoMC4wMzkzNzkzOCwwLDAsMC4wMzkzNzkzOCw1Ny43MzMyOTksLTE2Mi45NzEwNCkiIGNsYXNzPSJzdDM2IiBkPSJtIDIxODkuMiwyNDg3LjIgdiAyMDYuNSBoIC02OS44IHYgLTIwNi41IGMgMCwtNDMuMyAtMzUuNiwtNzguMSAtNzguMSwtNzguMSAtNDQsMCAtNzguOCwzNC45IC03OC44LDc4LjEgdiAyMDYuNSBoIC02OS44IHYgLTM0OC45IGggNTcuOSB2IDMwIGMgMjUuMSwtMjIuMyA1OC42LC0zNS42IDkzLjUsLTM1LjYgODAuOSwwLjEgMTQ1LjEsNjYuNCAxNDUuMSwxNDgiIGNsaXAtcGF0aD0idXJsKCNTVkdJRF80XykiIGlkPSJwYXRoMjYiIHN0eWxlPSJmaWxsOiM0MTQwNDIiLz48cGF0aCB0cmFuc2Zvcm09Im1hdHJpeCgwLjAzOTM3OTM4LDAsMCwwLjAzOTM3OTM4LDU3LjczMzI5OSwtMTYyLjk3MTA0KSIgY2xhc3M9InN0MzYiIGQ9Im0gMjU5OS41LDI2OTMuOCBoIC01OS4zIHYgLTQ0IGMgLTQ1LjksNDQuOCAtMTE4LjIsNjYuMyAtMTkxLjUsMzQuMSAtNTQuMywtMjMuOSAtOTQuNywtNzMuNCAtMTA1LjUsLTEzMS44IC0yMC44LC0xMTIuOCA2NiwtMjEyLjkgMTc2LjksLTIxMi45IDQ2LjcsMCA4OC42LDE4LjggMTE5LjMsNDkuNSB2IC00NCBoIDYwIHYgMzQ5LjEgeiBtIC03MS40LC0xNDkuNCBjIDE2LjUsLTcwLjkgLTM3LjIsLTEzNS4zIC0xMDcuMiwtMTM1LjMgLTYwLjcsMCAtMTA5LjUsNDkuNSAtMTA5LjUsMTA5LjUgMCw2Ny45IDU5LjcsMTIwLjQgMTI5LjEsMTA4LjYgNDIuNiwtNy4zIDc3LjgsLTQwLjUgODcuNiwtODIuOCIgY2xpcC1wYXRoPSJ1cmwoI1NWR0lEXzRfKSIgaWQ9InBhdGgyOCIgc3R5bGU9ImZpbGw6IzQxNDA0MiIvPjwvZz48ZyBpZD0iZzkzNyIgdHJhbnNmb3JtPSJtYXRyaXgoMC40ODk4MDc0OSwwLDAsMC40ODk4MDc0OSwtMjkuNzQ0ODQ2LDg4LjY2MjI2KSI+PHJlY3QgdHJhbnNmb3JtPSJtYXRyaXgoMC4wMzkzNzkzOCwwLDAsMC4wMzkzNzkzOCw1Ny43MzMyOTksLTE2Mi45NzEwNCkiIHg9IjQxMi43MDAwMSIgeT0iMTAwLjgiIGNsYXNzPSJzdDM3IiB3aWR0aD0iMTgzNC40IiBoZWlnaHQ9IjE5OTIuMyIgY2xpcC1wYXRoPSJ1cmwoI1NWR0lEXzZfKSIgaWQ9InJlY3Q0MyIgc3R5bGU9ImZpbGw6dXJsKCNTVkdJRF83XykiLz48L2c+PC9nPgo8L3N2Zz4=;" parent="1" vertex="1">
          <mxGeometry x="1530" y="227.7" width="280" height="140" as="geometry" />
        </mxCell>
        <mxCell id="4" value="" style="shape=image;verticalLabelPosition=bottom;labelBackgroundColor=default;verticalAlign=top;aspect=fixed;imageAspect=0;image=data:image/svg+xml,PHN2ZyB4bWxuczp4bGluaz0iaHR0cDovL3d3dy53My5vcmcvMTk5OS94bGluayIgeG1sbnM9Imh0dHA6Ly93d3cudzMub3JnLzIwMDAvc3ZnIiB4bWw6c3BhY2U9InByZXNlcnZlIiBzdHlsZT0iZW5hYmxlLWJhY2tncm91bmQ6bmV3IDAgMCAyMzcuNiAxNDQ7IiB2aWV3Qm94PSIwIDAgMjM3LjYgMTQ0IiBoZWlnaHQ9IjE0NHB4IiB3aWR0aD0iMjM3LjZweCIgeT0iMHB4IiB4PSIwcHgiIGlkPSJMYXllcl8xIiB2ZXJzaW9uPSIxLjEiPgo8c3R5bGUgdHlwZT0idGV4dC9jc3MiPgoJLnN0MHtmaWxsOiMxQTFBMUE7fQoJLnN0MXtmaWxsOnVybCgjU1ZHSURfMV8pO30KCS5zdDJ7ZmlsbDp1cmwoI1NWR0lEXzJfKTt9Cgkuc3Qze2ZpbGw6dXJsKCNTVkdJRF8zXyk7fQoJLnN0NHtmaWxsOnVybCgjU1ZHSURfNF8pO30KCS5zdDV7ZmlsbDp1cmwoI1NWR0lEXzVfKTt9Cgkuc3Q2e2ZpbGw6dXJsKCNTVkdJRF82Xyk7fQoJLnN0N3tmaWxsOnVybCgjU1ZHSURfN18pO30KCS5zdDh7ZmlsbDp1cmwoI1NWR0lEXzhfKTt9Cgkuc3Q5e2ZpbGw6dXJsKCNTVkdJRF85Xyk7fQoJLnN0MTB7ZmlsbDp1cmwoI1NWR0lEXzEwXyk7fQoJLnN0MTF7ZmlsbDp1cmwoI1NWR0lEXzExXyk7fQoJLnN0MTJ7ZmlsbDp1cmwoI1NWR0lEXzEyXyk7fQoJLnN0MTN7ZmlsbDp1cmwoI1NWR0lEXzEzXyk7fQoJLnN0MTR7ZmlsbDp1cmwoI1NWR0lEXzE0Xyk7fQo8L3N0eWxlPgo8Zz4KCTxnPgoJCTxwYXRoIGQ9Ik0xNC45NSwxMjguMjloMTMuNzNjLTEuMDEsNS42Ni01LjgxLDkuNzQtMTEuNDksOS43NGMtNi42NCwwLTExLjg1LTUuMzgtMTEuODUtMTIuMjUgICAgYzAtNi44MSw1LjQ4LTEyLjM0LDEyLjIxLTEyLjM0YzMuNzQsMCw2Ljk0LDIuMDksOC45NywzLjg1bDAuMTYsMC4xNGwyLjk3LTMuNjZsLTAuMTQtMC4xM2MtMy41OS0zLjM1LTcuNzItNS4xMy0xMS45Ni01LjEzICAgIGMtOS40OCwwLTE3LjE5LDcuNzUtMTcuMTksMTcuMjhjMCw5LjY0LDcuMzksMTcuMTksMTYuODIsMTcuMTljOS4wNCwwLDE2LjQxLTcuMjcsMTYuNzgtMTYuNTR2LTIuNTdIMTQuOTVWMTI4LjI5eiIgY2xhc3M9InN0MCIvPgoJCTxwYXRoIGQ9Ik00MC43OCwxMjEuMjh2LTEuNjRoLTQuMTZ2MjMuMDVoNC45M3YtMTMuODNjMC0yLjYzLDItNC40Niw0Ljg3LTQuNDZoMi43OHYtNC43NWgtMy4yOCAgICBDNDMuODQsMTE5LjY0LDQyLDEyMC4yMyw0MC43OCwxMjEuMjh6IiBjbGFzcz0ic3QwIi8+CgkJPHBhdGggZD0iTTY3Ljg5LDEyMi4yMmMtMi4wNS0xLjg4LTQuNzctMi45NC03LjU0LTIuOTRjLTYuNTgsMC0xMS45Myw1LjMxLTExLjkzLDExLjg0YzAsNi41OCw1LjM1LDExLjkzLDExLjkzLDExLjkzICAgIGMyLjg0LDAsNS41Mi0xLjA0LDcuNTktMi45NHYyLjU4aDQuMjV2LTIzLjA1aC00LjNWMTIyLjIyeiBNNjcuMywxMzEuMTJjMCwzLjgzLTMuMSw2Ljk1LTYuOTEsNi45NXMtNi45MS0zLjEyLTYuOTEtNi45NSAgICBjMC0zLjgxLDMuMS02LjkxLDYuOTEtNi45MVM2Ny4zLDEyNy4zMSw2Ny4zLDEzMS4xMnoiIGNsYXNzPSJzdDAiLz4KCQk8cGF0aCBkPSJNNzUuNzMsMTE4LjcxdjIzLjk4aDQuODl2LTE4LjY2aDcuMnYtNC4zOWgtNy4ydi0xLjA3YzAtMS44NCwxLjUxLTMuMzMsMy4zOC0zLjMzaDMuODN2LTQuNjZIODQgICAgQzc5LjEzLDExMC41OCw3NS43MywxMTMuOTIsNzUuNzMsMTE4LjcxeiIgY2xhc3M9InN0MCIvPgoJCTxwYXRoIGQ9Ik0xMDYuODcsMTIyLjIyYy0yLjA1LTEuODgtNC43Ny0yLjk1LTcuNTQtMi45NWMtNi41OCwwLTExLjkzLDUuMzEtMTEuOTMsMTEuODQgICAgYzAsNi41OCw1LjM1LDExLjkzLDExLjkzLDExLjkzYzIuODQsMCw1LjUyLTEuMDQsNy41OS0yLjk0djIuNThoNC4yNXYtMjMuMDVoLTQuM1YxMjIuMjJ6IE05OS4zNywxMzguMDcgICAgYy0zLjgxLDAtNi45MS0zLjEyLTYuOTEtNi45NWMwLTMuODEsMy4xLTYuOTEsNi45MS02LjkxczYuOTEsMy4xLDYuOTEsNi45MUMxMDYuMjgsMTM0Ljk1LDEwMy4xOCwxMzguMDcsOTkuMzcsMTM4LjA3eiIgY2xhc3M9InN0MCIvPgoJCTxwYXRoIGQ9Ik0xMjQuNTIsMTE5LjI4Yy0yLjEzLDAtNC4yMSwwLjc0LTUuOTEsMi4wOHYtMS43MmgtNC4xNnYyMy4wNWg0Ljkzdi0xMy42MWMwLTIuNjksMi4yMS00Ljg3LDQuOTItNC44NyAgICBjMi42OSwwLDQuODcsMi4xOCw0Ljg3LDQuODd2MTMuNjFoNC45OHYtMTMuNjFDMTM0LjE0LDEyMy42OCwxMjkuODMsMTE5LjI4LDEyNC41MiwxMTkuMjh6IiBjbGFzcz0ic3QwIi8+CgkJPHBhdGggZD0iTTE1NS41NCwxMjIuMjJjLTIuMDUtMS44OC00Ljc3LTIuOTUtNy41NC0yLjk1Yy02LjU4LDAtMTEuOTMsNS4zMS0xMS45MywxMS44NCAgICBjMCw2LjU4LDUuMzUsMTEuOTMsMTEuOTMsMTEuOTNjMi44NCwwLDUuNTItMS4wNCw3LjU5LTIuOTR2Mi41OGg0LjI1di0yMy4wNWgtNC4zVjEyMi4yMnogTTE1NC45NSwxMzEuMTIgICAgYzAsMy44My0zLjEsNi45NS02LjkxLDYuOTVjLTMuODEsMC02LjkxLTMuMTItNi45MS02Ljk1YzAtMy44MSwzLjEtNi45MSw2LjkxLTYuOTFDMTUxLjg1LDEyNC4yMSwxNTQuOTUsMTI3LjMxLDE1NC45NSwxMzEuMTJ6IiBjbGFzcz0ic3QwIi8+CgkJPHBhdGggZD0iTTE3OC40OCwxMzQuMzd2LTI0LjY2aC01LjA3djI0LjY2YzAsNS40MiwyLjUsOC4wNSw3LjYzLDguMDVoMS40OXYtNS4wN2gtMS40ICAgIEMxNzkuNDUsMTM3LjM1LDE3OC40OCwxMzYuMjcsMTc4LjQ4LDEzNC4zN3oiIGNsYXNzPSJzdDAiLz4KCQk8cGF0aCBkPSJNMTk2LjExLDExOC41N2MtNi42OCwwLTEyLjExLDUuNDMtMTIuMTEsMTIuMTFzNS40MywxMi4xMSwxMi4xMSwxMi4xMXMxMi4xMS01LjQzLDEyLjExLTEyLjExICAgIFMyMDIuNzksMTE4LjU3LDE5Ni4xMSwxMTguNTd6IE0yMDMuMTUsMTMwLjY4YzAsMy44OC0zLjE2LDcuMDQtNy4wNCw3LjA0cy03LjA0LTMuMTYtNy4wNC03LjA0YzAtMy44OCwzLjE2LTcuMDQsNy4wNC03LjA0ICAgIFMyMDMuMTUsMTI2Ljc5LDIwMy4xNSwxMzAuNjh6IiBjbGFzcz0ic3QwIi8+CgkJPHBvbHlnb24gcG9pbnRzPSIyMjkuMDEsMTE4Ljk0IDIyMi45OCwxMTguOTQgMjE1Ljg0LDEyNi45MiAyMTUuODQsMTA5LjcxIDIxMC43NywxMDkuNzEgMjEwLjc3LDE0Mi40MiAgICAgMjE1Ljg0LDE0Mi40MiAyMTUuODQsMTMzLjk0IDIxNi45MiwxMzIuNjcgMjIzLjgzLDE0Mi4zMyAyMjMuODksMTQyLjQyIDIyOS45MywxNDIuNDIgMjIwLjE5LDEyOC45OCIgY2xhc3M9InN0MCIvPgoJCTxyZWN0IGhlaWdodD0iMjMuNDgiIHdpZHRoPSI0Ljk3IiBjbGFzcz0ic3QwIiB5PSIxMTguOTQiIHg9IjIzMS44MSIvPgoJPC9nPgoJPHBhdGggZD0iTTIzNC4xNywxMTcuNTdjMS44LDAsMy4wNi0xLjI0LDMuMDYtMy4wMmMwLTEuNDgtMS4xNS0zLjAyLTMuMDYtMy4wMmMtMS41OCwwLTMuMDIsMS40NC0zLjAyLDMuMDIgICBDMjMxLjE1LDExNi4yNCwyMzIuNDgsMTE3LjU3LDIzNC4xNywxMTcuNTd6IiBjbGFzcz0ic3QwIi8+Cgk8Zz4KCQkKCQkJPGxpbmVhckdyYWRpZW50IGdyYWRpZW50VHJhbnNmb3JtPSJtYXRyaXgoMC45ODg0IC0wLjE1MjEgMC4xNTIxIDAuOTg4NCAtNTQzLjUxNjYgLTUwNi4zMzA3KSIgeTI9IjU5NS4yMTQiIHgyPSI1NDIuOTE1MSIgeTE9IjcyMy4yNDkxIiB4MT0iNTQyLjkxNTEiIGdyYWRpZW50VW5pdHM9InVzZXJTcGFjZU9uVXNlIiBpZD0iU1ZHSURfMV8iPgoJCQk8c3RvcCBzdHlsZT0ic3RvcC1jb2xvcjojRkFFRDFFIiBvZmZzZXQ9IjAiLz4KCQkJPHN0b3Agc3R5bGU9InN0b3AtY29sb3I6I0YxNUIyQiIgb2Zmc2V0PSIxIi8+CgkJPC9saW5lYXJHcmFkaWVudD4KCQk8cG9seWdvbiBwb2ludHM9IjEwMi41OSw5NS4zMSA5NC4zMSw5Ni41OSA5NS41OSwxMDQuODcgMTAzLjg3LDEwMy42IiBjbGFzcz0ic3QxIi8+CgkJCgkJCTxsaW5lYXJHcmFkaWVudCBncmFkaWVudFRyYW5zZm9ybT0ibWF0cml4KDAuOTg4NCAtMC4xNTIxIDAuMTUyMSAwLjk4ODQgLTU0My41MTY2IC01MDYuMzMwNykiIHkyPSI1OTUuMjE0IiB4Mj0iNTk2LjU3NjIiIHkxPSI3MjMuMjQ5MSIgeDE9IjU5Ni41NzYyIiBncmFkaWVudFVuaXRzPSJ1c2VyU3BhY2VPblVzZSIgaWQ9IlNWR0lEXzJfIj4KCQkJPHN0b3Agc3R5bGU9InN0b3AtY29sb3I6I0ZBRUQxRSIgb2Zmc2V0PSIwIi8+CgkJCTxzdG9wIHN0eWxlPSJzdG9wLWNvbG9yOiNGMTVCMkIiIG9mZnNldD0iMSIvPgoJCTwvbGluZWFyR3JhZGllbnQ+CgkJPHBvbHlnb24gcG9pbnRzPSIxMzIuNDksODUuOTIgMTY5LjA1LDgwLjI5IDE2Ny43Nyw3Mi4wMSAxMzEuMjIsNzcuNjMiIGNsYXNzPSJzdDIiLz4KCQkKCQkJPGxpbmVhckdyYWRpZW50IGdyYWRpZW50VHJhbnNmb3JtPSJtYXRyaXgoMC45ODg0IC0wLjE1MjEgMC4xNTIxIDAuOTg4NCAtNTQzLjUxNjYgLTUwNi4zMzA3KSIgeTI9IjU5NS4yMTQiIHgyPSI1NjkuMTU0NyIgeTE9IjcyMy4yNDkxIiB4MT0iNTY5LjE1NDciIGdyYWRpZW50VW5pdHM9InVzZXJTcGFjZU9uVXNlIiBpZD0iU1ZHSURfM18iPgoJCQk8c3RvcCBzdHlsZT0ic3RvcC1jb2xvcjojRkFFRDFFIiBvZmZzZXQ9IjAiLz4KCQkJPHN0b3Agc3R5bGU9InN0b3AtY29sb3I6I0YxNUIyQiIgb2Zmc2V0PSIxIi8+CgkJPC9saW5lYXJHcmFkaWVudD4KCQk8cG9seWdvbiBwb2ludHM9IjExOC4yNSw3OS42MyAxMTkuNTIsODcuOTEgMTI3LjgxLDg2LjY0IDEyNi41Myw3OC4zNSIgY2xhc3M9InN0MyIvPgoJCQoJCQk8bGluZWFyR3JhZGllbnQgZ3JhZGllbnRUcmFuc2Zvcm09Im1hdHJpeCgwLjk4ODQgLTAuMTUyMSAwLjE1MjEgMC45ODg0IC01NDMuNTE2NiAtNTA2LjMzMDcpIiB5Mj0iNTk1LjIxNCIgeDI9IjU1Ni4wMzQ5IiB5MT0iNzIzLjI0OTEiIHgxPSI1NTYuMDM0OSIgZ3JhZGllbnRVbml0cz0idXNlclNwYWNlT25Vc2UiIGlkPSJTVkdJRF80XyI+CgkJCTxzdG9wIHN0eWxlPSJzdG9wLWNvbG9yOiNGQUVEMUUiIG9mZnNldD0iMCIvPgoJCQk8c3RvcCBzdHlsZT0ic3RvcC1jb2xvcjojRjE1QjJCIiBvZmZzZXQ9IjEiLz4KCQk8L2xpbmVhckdyYWRpZW50PgoJCTxwb2x5Z29uIHBvaW50cz0iMTE2Ljg0LDEwMS42IDExNS41Niw5My4zMiAxMDcuMjgsOTQuNTkgMTA4LjU1LDEwMi44OCIgY2xhc3M9InN0NCIvPgoJCQoJCQk8bGluZWFyR3JhZGllbnQgZ3JhZGllbnRUcmFuc2Zvcm09Im1hdHJpeCgwLjk4ODQgLTAuMTUyMSAwLjE1MjEgMC45ODg0IC01NDMuNTE2NiAtNTA2LjMzMDcpIiB5Mj0iNTk1LjIxNCIgeDI9IjU0Mi45MTUxIiB5MT0iNzIzLjI0OTEiIHgxPSI1NDIuOTE1MSIgZ3JhZGllbnRVbml0cz0idXNlclNwYWNlT25Vc2UiIGlkPSJTVkdJRF81XyI+CgkJCTxzdG9wIHN0eWxlPSJzdG9wLWNvbG9yOiNGQUVEMUUiIG9mZnNldD0iMCIvPgoJCQk8c3RvcCBzdHlsZT0ic3RvcC1jb2xvcjojRjE1QjJCIiBvZmZzZXQ9IjEiLz4KCQk8L2xpbmVhckdyYWRpZW50PgoJCTxwb2x5Z29uIHBvaW50cz0iOTMuNTksOTEuOSAxMDEuODcsOTAuNjMgMTAwLjYsODIuMzQgOTIuMzIsODMuNjIiIGNsYXNzPSJzdDUiLz4KCQkKCQkJPGxpbmVhckdyYWRpZW50IGdyYWRpZW50VHJhbnNmb3JtPSJtYXRyaXgoMC45ODg0IC0wLjE1MjEgMC4xNTIxIDAuOTg4NCAtNTQzLjUxNjYgLTUwNi4zMzA3KSIgeTI9IjU5NS4yMTQiIHgyPSI1OTYuNTc2MiIgeTE9IjcyMy4yNDkxIiB4MT0iNTk2LjU3NjIiIGdyYWRpZW50VW5pdHM9InVzZXJTcGFjZU9uVXNlIiBpZD0iU1ZHSURfNl8iPgoJCQk8c3RvcCBzdHlsZT0ic3RvcC1jb2xvcjojRkFFRDFFIiBvZmZzZXQ9IjAiLz4KCQkJPHN0b3Agc3R5bGU9InN0b3AtY29sb3I6I0YxNUIyQiIgb2Zmc2V0PSIxIi8+CgkJPC9saW5lYXJHcmFkaWVudD4KCQk8cG9seWdvbiBwb2ludHM9IjE2OS43Nyw4NC45OCAxMzMuMjEsOTAuNiAxMzQuNDksOTguODkgMTcxLjA0LDkzLjI2IiBjbGFzcz0ic3Q2Ii8+CgkJCgkJCTxsaW5lYXJHcmFkaWVudCBncmFkaWVudFRyYW5zZm9ybT0ibWF0cml4KDAuOTg4NCAtMC4xNTIxIDAuMTUyMSAwLjk4ODQgLTU0My41MTY2IC01MDYuMzMwNykiIHkyPSI1OTUuMjE0IiB4Mj0iNTY5LjE1NDciIHkxPSI3MjMuMjQ5MSIgeDE9IjU2OS4xNTQ3IiBncmFkaWVudFVuaXRzPSJ1c2VyU3BhY2VPblVzZSIgaWQ9IlNWR0lEXzdfIj4KCQkJPHN0b3Agc3R5bGU9InN0b3AtY29sb3I6I0ZBRUQxRSIgb2Zmc2V0PSIwIi8+CgkJCTxzdG9wIHN0eWxlPSJzdG9wLWNvbG9yOiNGMTVCMkIiIG9mZnNldD0iMSIvPgoJCTwvbGluZWFyR3JhZGllbnQ+CgkJPHBvbHlnb24gcG9pbnRzPSIxMjAuMjUsOTIuNiAxMjEuNTIsMTAwLjg4IDEyOS44LDk5LjYxIDEyOC41Myw5MS4zMiIgY2xhc3M9InN0NyIvPgoJCQoJCQk8bGluZWFyR3JhZGllbnQgZ3JhZGllbnRUcmFuc2Zvcm09Im1hdHJpeCgwLjk4ODQgLTAuMTUyMSAwLjE1MjEgMC45ODg0IC01NDMuNTE2NiAtNTA2LjMzMDcpIiB5Mj0iNTk1LjIxNCIgeDI9IjU1Ni4wMzQ5IiB5MT0iNzIzLjI0OTEiIHgxPSI1NTYuMDM0OSIgZ3JhZGllbnRVbml0cz0idXNlclNwYWNlT25Vc2UiIGlkPSJTVkdJRF84XyI+CgkJCTxzdG9wIHN0eWxlPSJzdG9wLWNvbG9yOiNGQUVEMUUiIG9mZnNldD0iMCIvPgoJCQk8c3RvcCBzdHlsZT0ic3RvcC1jb2xvcjojRjE1QjJCIiBvZmZzZXQ9IjEiLz4KCQk8L2xpbmVhckdyYWRpZW50PgoJCTxwb2x5Z29uIHBvaW50cz0iMTA2LjU2LDg5LjkxIDExNC44NCw4OC42MyAxMTMuNTcsODAuMzUgMTA1LjI4LDgxLjYyIiBjbGFzcz0ic3Q4Ii8+CgkJCgkJCTxsaW5lYXJHcmFkaWVudCBncmFkaWVudFRyYW5zZm9ybT0ibWF0cml4KDAuOTg4NCAtMC4xNTIxIDAuMTUyMSAwLjk4ODQgLTU0My41MTY2IC01MDYuMzMwNykiIHkyPSI1OTkuMzMxOSIgeDI9IjU0MC40OTQ4IiB5MT0iNzIwLjc2MjIiIHgxPSI1NDAuNDk0OCIgZ3JhZGllbnRVbml0cz0idXNlclNwYWNlT25Vc2UiIGlkPSJTVkdJRF85XyI+CgkJCTxzdG9wIHN0eWxlPSJzdG9wLWNvbG9yOiNGQUVEMUUiIG9mZnNldD0iMCIvPgoJCQk8c3RvcCBzdHlsZT0ic3RvcC1jb2xvcjojRjE1QjJCIiBvZmZzZXQ9IjEiLz4KCQk8L2xpbmVhckdyYWRpZW50PgoJCTxwb2x5Z29uIHBvaW50cz0iOTEuNiw3OC45NCA5NS4wOSw3OC40IDg0LjksMTIuMTIgODEuNCwxMi42NiIgY2xhc3M9InN0OSIvPgoJCQoJCQk8bGluZWFyR3JhZGllbnQgZ3JhZGllbnRUcmFuc2Zvcm09Im1hdHJpeCgwLjk4ODQgLTAuMTUyMSAwLjE1MjEgMC45ODg0IC01NDMuNTE2NiAtNTA2LjMzMDcpIiB5Mj0iNTkzLjc1NTciIHgyPSI1NDUuMzYwNyIgeTE9IjcyNC4xMjk4IiB4MT0iNTQ1LjM2MDciIGdyYWRpZW50VW5pdHM9InVzZXJTcGFjZU9uVXNlIiBpZD0iU1ZHSURfMTBfIj4KCQkJPHN0b3Agc3R5bGU9InN0b3AtY29sb3I6I0ZBRUQxRSIgb2Zmc2V0PSIwIi8+CgkJCTxzdG9wIHN0eWxlPSJzdG9wLWNvbG9yOiNGMTVCMkIiIG9mZnNldD0iMSIvPgoJCTwvbGluZWFyR3JhZGllbnQ+CgkJPHBvbHlnb24gcG9pbnRzPSI5Ni40LDc4LjIgOTkuOSw3Ny42NiA4OC45Niw2LjUgODUuNDYsNy4wNCIgY2xhc3M9InN0MTAiLz4KCQkKCQkJPGxpbmVhckdyYWRpZW50IGdyYWRpZW50VHJhbnNmb3JtPSJtYXRyaXgoMC45ODg0IC0wLjE1MjEgMC4xNTIxIDAuOTg4NCAtNTQzLjUxNjYgLTUwNi4zMzA3KSIgeTI9IjU4OC44NTYxIiB4Mj0iNTUzLjY2ODUiIHkxPSI3MjcuMDg4NyIgeDE9IjU1My42Njg1IiBncmFkaWVudFVuaXRzPSJ1c2VyU3BhY2VPblVzZSIgaWQ9IlNWR0lEXzExXyI+CgkJCTxzdG9wIHN0eWxlPSJzdG9wLWNvbG9yOiNGQUVEMUUiIG9mZnNldD0iMCIvPgoJCQk8c3RvcCBzdHlsZT0ic3RvcC1jb2xvcjojRjE1QjJCIiBvZmZzZXQ9IjEiLz4KCQk8L2xpbmVhckdyYWRpZW50PgoJCTxwb2x5Z29uIHBvaW50cz0iMTA0LjYyLDc2LjkzIDEwOC4xMSw3Ni4zOSA5Ni41MSwwLjk1IDkzLjAxLDEuNDkiIGNsYXNzPSJzdDExIi8+CgkJCgkJCTxsaW5lYXJHcmFkaWVudCBncmFkaWVudFRyYW5zZm9ybT0ibWF0cml4KDAuOTg4NCAtMC4xNTIxIDAuMTUyMSAwLjk4ODQgLTU0My41MTY2IC01MDYuMzMwNykiIHkyPSI1OTYuNDY4MSIgeDI9IjU1OC41MzQ0IiB5MT0iNzIyLjQ5MTYiIHgxPSI1NTguNTM0NCIgZ3JhZGllbnRVbml0cz0idXNlclNwYWNlT25Vc2UiIGlkPSJTVkdJRF8xMl8iPgoJCQk8c3RvcCBzdHlsZT0ic3RvcC1jb2xvcjojRkFFRDFFIiBvZmZzZXQ9IjAiLz4KCQkJPHN0b3Agc3R5bGU9InN0b3AtY29sb3I6I0YxNUIyQiIgb2Zmc2V0PSIxIi8+CgkJPC9saW5lYXJHcmFkaWVudD4KCQk8cG9seWdvbiBwb2ludHM9IjEwOS40Miw3Ni4xOSAxMTIuOTIsNzUuNjUgMTAyLjM0LDYuODcgOTguODQsNy40MSIgY2xhc3M9InN0MTIiLz4KCQkKCQkJPGxpbmVhckdyYWRpZW50IGdyYWRpZW50VHJhbnNmb3JtPSJtYXRyaXgoMC45ODg0IC0wLjE1MjEgMC4xNTIxIDAuOTg4NCAtNTQzLjUxNjYgLTUwNi4zMzA3KSIgeTI9IjYwNS4yNDI2IiB4Mj0iNTY2LjczNjkiIHkxPSI3MTcuMTkyNyIgeDE9IjU2Ni43MzY5IiBncmFkaWVudFVuaXRzPSJ1c2VyU3BhY2VPblVzZSIgaWQ9IlNWR0lEXzEzXyI+CgkJCTxzdG9wIHN0eWxlPSJzdG9wLWNvbG9yOiNGQUVEMUUiIG9mZnNldD0iMCIvPgoJCQk8c3RvcCBzdHlsZT0ic3RvcC1jb2xvcjojRjE1QjJCIiBvZmZzZXQ9IjEiLz4KCQk8L2xpbmVhckdyYWRpZW50PgoJCTxwb2x5Z29uIHBvaW50cz0iMTE3LjUzLDc0Ljk1IDEyMS4wMyw3NC40MSAxMTEuNjMsMTMuMzEgMTA4LjEzLDEzLjg0IiBjbGFzcz0ic3QxMyIvPgoJCQoJCQk8bGluZWFyR3JhZGllbnQgZ3JhZGllbnRUcmFuc2Zvcm09Im1hdHJpeCgwLjk4ODQgLTAuMTUyMSAwLjE1MjEgMC45ODg0IC01NDMuNTE2NiAtNTA2LjMzMDcpIiB5Mj0iNjAyLjU2ODEiIHgyPSI1NzEuNjAyOCIgeTE9IjcxOC44MDc5IiB4MT0iNTcxLjYwMjgiIGdyYWRpZW50VW5pdHM9InVzZXJTcGFjZU9uVXNlIiBpZD0iU1ZHSURfMTRfIj4KCQkJPHN0b3Agc3R5bGU9InN0b3AtY29sb3I6I0ZBRUQxRSIgb2Zmc2V0PSIwIi8+CgkJCTxzdG9wIHN0eWxlPSJzdG9wLWNvbG9yOiNGMTVCMkIiIG9mZnNldD0iMSIvPgoJCTwvbGluZWFyR3JhZGllbnQ+CgkJPHBvbHlnb24gcG9pbnRzPSIxMjIuMzQsNzQuMjEgMTI1Ljg0LDczLjY3IDExNi4wOCwxMC4yMyAxMTIuNTgsMTAuNzYiIGNsYXNzPSJzdDE0Ii8+Cgk8L2c+CjwvZz4KPC9zdmc+;" parent="1" vertex="1">
          <mxGeometry x="1115.5" y="347.32" width="189" height="114.35" as="geometry" />
        </mxCell>
        <mxCell id="5" value="" style="shape=image;verticalLabelPosition=bottom;labelBackgroundColor=default;verticalAlign=top;aspect=fixed;imageAspect=0;image=data:image/svg+xml,PHN2ZyB4bWxucz0iaHR0cDovL3d3dy53My5vcmcvMjAwMC9zdmciIGZpbGw9Im5vbmUiIHZpZXdCb3g9IjAgMCAyMzkgMTIxIiBoZWlnaHQ9IjEyMSIgd2lkdGg9IjIzOSI+CjxwYXRoIGZpbGw9IiMxNzE3MUMiIGQ9Ik0xNTEuNTkzIDg5LjUzMzhIMTQzLjgwNFYxMTIuMDM1SDEzOS45MDlWODkuNTMzOEgxMzIuMTIxVjg2SDE1MS41MjFWODkuNTMzOEgxNTEuNTkzWiIvPgo8cGF0aCBmaWxsPSIjMTcxNzFDIiBkPSJNMTY2Ljk1NCAxMDQuNjc5SDE1Mi44OTFDMTUzLjM5NiAxMDcuNTYzIDE1NS40ODcgMTA5LjAwNiAxNTguMzcyIDEwOS4wMDZDMTYwLjM5MSAxMDkuMDA2IDE2Mi4zMzggMTA4LjA2OCAxNjMuMzQ4IDEwNi40MDlMMTY2LjMwNSAxMDcuODUyQzE2NC43MTggMTEwLjgwOSAxNjEuNTQ1IDExMi4zOTUgMTU4LjIyOCAxMTIuMzk1QzE1My4xMDcgMTEyLjM5NSAxNDkuMTQxIDEwOC42NDUgMTQ5LjE0MSAxMDMuMDJDMTQ5LjE0MSA5Ny4zOTQ3IDE1My4yNTEgOTMuNzg4OCAxNTguMjI4IDkzLjc4ODhDMTYzLjI3NiA5My43ODg4IDE2Ny4wOTggOTcuMzk0NyAxNjcuMDk4IDEwMy4wMkMxNjcuMDI2IDEwMy41OTcgMTY3LjAyNiAxMDQuMTAyIDE2Ni45NTQgMTA0LjY3OVpNMTYzLjM0OCAxMDEuNjVDMTYyLjk4NyA5OC45MDkxIDE2MC45NjggOTcuMzIyNSAxNTguMjI4IDk3LjMyMjVDMTU1LjQ4NyA5Ny4zMjI1IDE1My40NjggOTguNjkyOCAxNTIuOTYzIDEwMS42NUgxNjMuMzQ4WiIvPgo8cGF0aCBmaWxsPSIjMTcxNzFDIiBkPSJNMTk3LjI0NCAxMDEuOTM4VjExMi4wMzVIMTkzLjQ5M1YxMDIuMTU0QzE5My40OTMgOTkuMjY5NyAxOTEuOTc5IDk3LjQ2NjggMTg5LjU5OSA5Ny40NjY4QzE4Ny4wNzUgOTcuMzk0NiAxODUuNDE2IDk5LjM0MTggMTg1LjIgMTAxLjkzOFYxMTIuMDM1SDE4MS40NVYxMDIuMTU0QzE4MS40NSA5OS4yNjk3IDE3OS45MzUgOTcuNDY2OCAxNzcuNzcyIDk3LjQ2NjhDMTc1LjQ2NCA5Ny40NjY4IDE3My4wODQgOTguOTA5MSAxNzMuMDg0IDEwMi41MTVWMTEyLjAzNUgxNjkuNDA2Vjk0LjM2NTdIMTczLjA4NFY5Ny4xNzgzQzE3My44NzcgOTUuMTU5IDE3Ni4xODUgOTMuOTMzIDE3OC42MzcgOTMuOTMzQzE4MS4xNjEgOTMuOTMzIDE4My4zOTcgOTUuMjMxMSAxODQuNDA2IDk3LjUzODlDMTg1Ljk5MyA5NC41MDk5IDE4OC43MzQgOTMuOTMzIDE5MC40NjQgOTMuOTMzQzE5NC44NjQgOTMuODYwOSAxOTcuMjQ0IDk2Ljg4OTggMTk3LjI0NCAxMDEuOTM4WiIvPgo8cGF0aCBmaWxsPSIjMTcxNzFDIiBkPSJNMjE5LjA5NSAxMDMuMTY0QzIxOS4wOTUgMTA4Ljc4OSAyMTUuMTI5IDExMi40NjcgMjEwLjI5NyAxMTIuNDY3QzIwNy43NzMgMTEyLjQ2NyAyMDUuMzIxIDExMS4zODYgMjA0LjE2NyAxMDkuMzY2VjEyMC41NDVIMjAwLjQ4OVY5NC4yOTM2SDIwNC4xNjdWOTYuOTYxOUMyMDUuMzIxIDk0Ljk0MjYgMjA3LjkxNyA5My44NjA5IDIxMC4yOTcgOTMuODYwOUMyMTUuMTI5IDkzLjg2MDkgMjE5LjA5NSA5Ny42MTEgMjE5LjA5NSAxMDMuMTY0Wk0yMTUuNDE3IDEwMy4yMzZDMjE1LjQxNyA5OS45MTg4IDIxMi45NjUgOTcuMzk0NyAyMDkuOTM2IDk3LjM5NDdDMjA2Ljk4IDk3LjM5NDcgMjA0LjMxMSA5OS43MDI1IDIwNC4zMTEgMTAzLjIzNkMyMDQuMzExIDEwNi43NyAyMDcuMTk2IDEwOS4wMDYgMjA5LjkzNiAxMDkuMDA2QzIxMi45NjUgMTA5LjAwNiAyMTUuNDE3IDEwNi41NTQgMjE1LjQxNyAxMDMuMjM2WiIvPgo8cGF0aCBmaWxsPSIjMTcxNzFDIiBkPSJNMjIwLjM5MyAxMDMuMTY0QzIyMC4zOTMgOTcuNTM4OSAyMjQuNjQ4IDkzLjg2MDkgMjI5LjY5NyA5My44NjA5QzIzNC43NDUgOTMuODYwOSAyMzkgOTcuNTM4OSAyMzkgMTAzLjE2NEMyMzkgMTA4Ljc4OSAyMzQuNzQ1IDExMi40NjcgMjI5LjY5NyAxMTIuNDY3QzIyNC42NDggMTEyLjQ2NyAyMjAuMzkzIDEwOC43ODkgMjIwLjM5MyAxMDMuMTY0Wk0yMzUuMjUgMTAzLjE2NEMyMzUuMjUgOTkuNzc0NiAyMzIuNjU0IDk3LjM5NDcgMjI5LjYyNSA5Ny4zOTQ3QzIyNi41OTYgOTcuMzk0NyAyMjQuMDcxIDk5Ljc3NDYgMjI0LjA3MSAxMDMuMTY0QzIyNC4wNzEgMTA2LjYyNiAyMjYuNTk2IDEwOS4wMDYgMjI5LjYyNSAxMDkuMDA2QzIzMi43MjYgMTA5LjAwNiAyMzUuMjUgMTA2LjYyNiAyMzUuMjUgMTAzLjE2NFoiLz4KPHBhdGggZmlsbD0iIzE3MTcxQyIgZD0iTTI1LjYwMiA5OS43NzQ2QzI1LjMxMzUgMTA2Ljg0MiAxOS43NjA0IDExMi4zOTUgMTIuNzY0OSAxMTIuMzk1QzUuNDA4ODggMTEyLjM5NSAwIDEwNi40ODIgMCA5OS4yNjk4QzAgOTIuMDU3OSA1LjkxMzcxIDg2LjA3MjEgMTMuMTI1NSA4Ni4wNzIxQzE2LjM3MDkgODYuMDcyMSAxOS41NDQxIDg3LjQ0MjQgMjIuMjg0NSA4OS45NjY1TDIwLjE5MzEgOTIuNTYyOEMxOC4xMDE3IDkwLjc1OTggMTUuNjQ5NyA4OS41MzM4IDEzLjE5NzYgODkuNTMzOEM3LjkzMyA4OS41MzM4IDMuNjA1OTEgOTMuODYwOSAzLjYwNTkxIDk5LjE5NzdDMy42MDU5MSAxMDQuNjA3IDcuNzE2NjUgMTA4Ljc4OSAxMi45MDkyIDEwOC43ODlDMTcuNTk2OSAxMDguNzg5IDIxLjI3NDkgMTA1LjQgMjEuOTk2MSAxMDAuOTI4SDExLjM5NDdWOTcuODI3NEgyNS43NDYyTDI1LjYwMiA5OS43NzQ2WiIvPgo8cGF0aCBmaWxsPSIjMTcxNzFDIiBkPSJNMzcuNzg5OSA5OC4wNDM3SDM1Ljg0MjhDMzMuNjc5MiA5OC4wNDM3IDMxLjk0ODQgOTkuNzc0NiAzMS45NDg0IDEwMS45MzhWMTEyLjE3OUgyOC40ODY3Vjk0LjcyNjNIMzEuMzcxNFY5Ni4xNjg3QzMyLjMwOSA5NS4yMzExIDMzLjgyMzUgOTQuNzI2MyAzNS40ODIyIDk0LjcyNjNIMzkuMjMyM0wzNy43ODk5IDk4LjA0MzdaIi8+CjxwYXRoIGZpbGw9IiMxNzE3MUMiIGQ9Ik01Ni44MjkyIDExMi4xNzlINTMuODcyM1YxMDkuOTQzQzUxLjU2NDYgMTEyLjE3OSA0Ny45NTg2IDExMy4yNjEgNDQuMjgwNiAxMTEuNjc0QzQxLjU0MDEgMTEwLjQ0OCAzOS41MjA4IDEwNy45OTYgMzkuMDE2IDEwNS4wMzlDMzguMDA2MyA5OS40MTQgNDIuMzMzNCA5NC4zNjU3IDQ3Ljg4NjUgOTQuMzY1N0M1MC4xOTQzIDk0LjM2NTcgNTIuMzU3OSA5NS4zMDMzIDUzLjg3MjMgOTYuODE3OFY5NC43MjYzSDU2LjkwMTNMNTYuODI5MiAxMTIuMTc5Wk01My4yOTU0IDEwNC42NzlDNTQuMDg4NyAxMDEuMTQ1IDUxLjQyMDMgOTcuODk5NSA0Ny45NTg2IDk3Ljg5OTVDNDQuOTI5NyA5Ny44OTk1IDQyLjQ3NzYgMTAwLjM1MiA0Mi40Nzc2IDEwMy4zODFDNDIuNDc3NiAxMDYuNzcgNDUuNDM0NSAxMDkuNDM4IDQ4Ljk2ODMgMTA4Ljc4OUM1MC45ODc2IDEwOC41MDEgNTIuNzkwNSAxMDYuODQyIDUzLjI5NTQgMTA0LjY3OVoiLz4KPHBhdGggZmlsbD0iIzE3MTcxQyIgZD0iTTYzLjg5NjkgOTMuNzE2NlY5NC43MjYzSDY5LjQ1Vjk3LjgyNzRINjMuODk2OVYxMTIuMjUxSDYwLjQzNTJWOTMuOTMzQzYwLjQzNTIgOTAuMTEwOCA2My4xNzU3IDg3LjgwMyA2Ni42Mzc0IDg3LjgwM0g3MC44MjAyTDY5LjQ1IDkxLjEyMDRINjYuNjM3NEM2NS4xMjI5IDkwLjk3NjIgNjMuODk2OSA5Mi4yMDIyIDYzLjg5NjkgOTMuNzE2NloiLz4KPHBhdGggZmlsbD0iIzE3MTcxQyIgZD0iTTg3Ljk4NDMgMTEyLjE3OUg4NS4wMjc1VjEwOS45NDNDODIuNzE5NyAxMTIuMTc5IDc5LjExMzggMTEzLjI2MSA3NS40MzU4IDExMS42NzRDNzIuNjk1MyAxMTAuNDQ4IDcwLjY3NTkgMTA3Ljk5NiA3MC4xNzExIDEwNS4wMzlDNjkuMTYxNSA5OS40MTQgNzMuNDg4NiA5NC4zNjU3IDc5LjA0MTcgOTQuMzY1N0M4MS4zNDk1IDk0LjM2NTcgODMuNTEzIDk1LjMwMzMgODUuMDI3NSA5Ni44MTc4Vjk0LjcyNjNIODguMDU2NUw4Ny45ODQzIDExMi4xNzlaTTg0LjM3ODQgMTA0LjY3OUM4NS4xNzE3IDEwMS4xNDUgODIuNTAzNCA5Ny44OTk1IDc5LjA0MTcgOTcuODk5NUM3Ni4wMTI3IDk3Ljg5OTUgNzMuNTYwNyAxMDAuMzUyIDczLjU2MDcgMTAzLjM4MUM3My41NjA3IDEwNi43NyA3Ni41MTc1IDEwOS40MzggODAuMDUxMyAxMDguNzg5QzgyLjE0MjggMTA4LjUwMSA4My44NzM2IDEwNi44NDIgODQuMzc4NCAxMDQuNjc5WiIvPgo8cGF0aCBmaWxsPSIjMTcxNzFDIiBkPSJNMTA2LjY2MyAxMDEuNzk0VjExMi4xMDdIMTAzLjEyOVYxMDEuNzk0QzEwMy4xMjkgOTkuNjMwMyAxMDEuMzI2IDk3Ljg5OTUgOTkuMjM0OCA5Ny44OTk1Qzk2Ljk5OTIgOTcuODk5NSA5NS4yNjgzIDk5LjYzMDMgOTUuMjY4MyAxMDEuNzk0VjExMi4xMDdIOTEuODA2NlY5NC43MjYzSDk0LjY5MTRWOTYuMjQwOEM5NS45MTc0IDk1LjA4NjkgOTcuNjQ4MiA5NC40Mzc4IDk5LjM3OTEgOTQuNDM3OEMxMDMuNDE4IDk0LjQzNzggMTA2LjY2MyA5Ny43NTUzIDEwNi42NjMgMTAxLjc5NFoiLz4KPHBhdGggZmlsbD0iIzE3MTcxQyIgZD0iTTEyNy4yMTcgMTEyLjE3OUgxMjQuMjZWMTA5Ljk0M0MxMjEuOTUyIDExMi4xNzkgMTE4LjM0NiAxMTMuMjYxIDExNC42NjggMTExLjY3NEMxMTEuOTI4IDExMC40NDggMTA5LjkwOCAxMDcuOTk2IDEwOS40MDMgMTA1LjAzOUMxMDguMzk0IDk5LjQxNCAxMTIuNzIxIDk0LjM2NTcgMTE4LjI3NCA5NC4zNjU3QzEyMC41ODIgOTQuMzY1NyAxMjIuNzQ1IDk1LjMwMzMgMTI0LjI2IDk2LjgxNzhWOTQuNzI2M0gxMjcuMjg5TDEyNy4yMTcgMTEyLjE3OVpNMTIzLjYxMSAxMDQuNjc5QzEyNC40MDQgMTAxLjE0NSAxMjEuNzM2IDk3Ljg5OTUgMTE4LjI3NCA5Ny44OTk1QzExNS4yNDUgOTcuODk5NSAxMTIuNzkzIDEwMC4zNTIgMTEyLjc5MyAxMDMuMzgxQzExMi43OTMgMTA2Ljc3IDExNS43NSAxMDkuNDM4IDExOS4yODQgMTA4Ljc4OUMxMjEuMzc1IDEwOC41MDEgMTIzLjEwNiAxMDYuODQyIDEyMy42MTEgMTA0LjY3OVoiLz4KPHBhdGggZmlsbD0idXJsKCNwYWludDBfbGluZWFyKSIgZD0iTTc5LjIzODIgMTcuNjkyM0g3Ny42OTYyQzc2Ljc3MSAxNy42OTIzIDc2IDE4LjQ2MTYgNzYgMTkuMzg0N0M3NiAyMC4zMDc3IDc2Ljc3MSAyMS4wNzY5IDc3LjY5NjIgMjEuMDc2OUg3OS4yMzgyQzgwLjE2MzQgMjEuMDc2OSA4MC45MzQ0IDIwLjMwNzcgODAuOTM0NCAxOS4zODQ3QzgwLjkzNDQgMTguNDYxNiA4MC4xNjM0IDE3LjY5MjMgNzkuMjM4MiAxNy42OTIzWk0xMTAuMjMyIDQyLjAwMDFIMTA4LjY5QzEwNy43NjUgNDIuMDAwMSAxMDYuOTk0IDQyLjc2OTMgMTA2Ljk5NCA0My42OTIzQzEwNi45OTQgNDQuNjE1NCAxMDcuNzY1IDQ1LjM4NDYgMTA4LjY5IDQ1LjM4NDZIMTEwLjIzMkMxMTEuMTU3IDQ1LjM4NDYgMTExLjkyOCA0NC42MTU0IDExMS45MjggNDMuNjkyM0MxMTEuNzc0IDQyLjc2OTMgMTExLjE1NyA0Mi4wMDAxIDExMC4yMzIgNDIuMDAwMVpNMTA4Ljg0NCAyNkMxMDguODQ0IDI1LjA3NyAxMDguMDczIDI0LjMwNzggMTA3LjE0OCAyNC4zMDc4SDEwMS41OTdDMTAwLjY3MiAyNC4zMDc4IDk5LjkwMDcgMjUuMDc3IDk5LjkwMDcgMjZDOTkuOTAwNyAyNi45MjMxIDEwMC42NzIgMjcuNjkyMyAxMDEuNTk3IDI3LjY5MjNIMTA3LjE0OEMxMDguMDczIDI3LjY5MjMgMTA4Ljg0NCAyNi45MjMxIDEwOC44NDQgMjZaTTE2MS44ODkgMTUuNTM4NUwxNjAuMTkyIDYuMDAwMDRDMTU5LjQyMSAyLjE1Mzg4IDE1Ni42NDYgMCAxNTIuOTQ1IDBIODcuMjU2NUM4NC4zMjY3IDAgODIuMzIyMiAyLjQ2MTU0IDgyLjc4NDggNS4zODQ2Mkw4NC42MzUxIDE1LjUzODVDODQuNjM1MSAxNS42OTI0IDg0LjYzNTEgMTUuNjkyNCA4NC42MzUxIDE1Ljg0NjJDODQuNzg5MyAxNy4wNzcgODQuMTcyNSAxNy41Mzg1IDgzLjcwOTkgMTcuNjkyM0M4My4wOTMxIDE4IDgyLjYzMDYgMTguNDYxNSA4Mi42MzA2IDE5LjIzMDhDODIuNjMwNiAyMC4xNTM4IDgzLjQwMTYgMjAuOTIzMSA4NC4zMjY3IDIwLjkyMzFIMTU3LjQxN0MxNjAuNTAxIDIxLjA3NyAxNjIuNTA1IDE4LjYxNTQgMTYxLjg4OSAxNS41Mzg1Wk0xMzkuNjg0IDUzLjg0NjJDMTM4LjkxMyA1MC4xNTM4IDEzNi45MDggNDguNzY5MyAxMzQuNDQxIDQ4Ljc2OTNIMTE3LjMyNUgxMTcuMDE3QzExNi4wOTIgNDguNzY5MyAxMTUuMzIxIDQ5LjUzODUgMTE1LjMyMSA1MC40NjE2QzExNS4zMjEgNTEuMzg0NyAxMTUuOTM3IDUyIDExNi44NjMgNTIuMTUzOUMxMTcuNDc5IDUyLjMwNzcgMTE3Ljk0MiA1Mi45MjMxIDExOC40MDUgNTQuNzY5M0wxMjAuMjU1IDY0LjYxNTRDMTIwLjcxOCA2Ny41Mzg1IDEyMy42NDcgNzAgMTI2LjczMSA3MEgxMzcuMDYzQzE0MC4xNDcgNzAgMTQyLjE1MSA2Ny41Mzg1IDE0MS42ODkgNjQuNjE1NEwxMzkuNjg0IDUzLjg0NjJaTTExNi43MDggNDUuNTM4NUgxMzUuNTIxQzEzNS42NzUgNDUuNTM4NSAxMzUuODI5IDQ1LjUzODUgMTM1Ljk4MyA0NS41Mzg1QzEzNy42NzkgNDUuMjMwOCAxMzcuODM0IDQzLjY5MjMgMTM3LjUyNSA0Mi4zMDc3TDEzNS4wNTggMjkuMjMwOEMxMzQuNDQxIDI1Ljg0NjIgMTMyLjQzNyAyNC40NjE2IDEyOS44MTUgMjQuNDYxNkgxMTIuODUzSDExMi41NDVDMTExLjYyIDI0LjQ2MTYgMTEwLjg0OSAyNS4yMzA4IDExMC44NDkgMjYuMTUzOEMxMTAuODQ5IDI3LjA3NjkgMTExLjQ2NiAyNy42OTI0IDExMi4zOTEgMjcuODQ2MkMxMTMuMDA4IDI4LjAwMDEgMTEzLjYyNCAyOC43NjkzIDExMy45MzMgMzAuNjE1NEwxMTUuNzgzIDQwLjYxNTRDMTE1LjkzNyA0MS41Mzg1IDExNS4zMjEgNDIgMTE0LjcwNCA0Mi4zMDc3QzExNC4wODcgNDIuNDYxNSAxMTMuNjI0IDQzLjA3NjkgMTEzLjYyNCA0My44NDYyQzExMy42MjQgNDQuNzY5MiAxMTQuMzk1IDQ1LjUzODUgMTE1LjMyMSA0NS41Mzg1SDExNi43MDhaIi8+CjxkZWZzPgo8bGluZWFyR3JhZGllbnQgZ3JhZGllbnRVbml0cz0idXNlclNwYWNlT25Vc2UiIHkyPSI0MC4zMjE0IiB4Mj0iOTUuMTY1MyIgeTE9IjkuNDQ2NDYiIHgxPSIxOTUuMDQ3IiBpZD0icGFpbnQwX2xpbmVhciI+CjxzdG9wIHN0b3AtY29sb3I9IiNGRkYxMDAiLz4KPHN0b3Agc3RvcC1jb2xvcj0iI0YwNUEyOCIgb2Zmc2V0PSIxIi8+CjwvbGluZWFyR3JhZGllbnQ+CjwvZGVmcz4KPC9zdmc+;" parent="1" vertex="1">
          <mxGeometry x="1101" y="524.5" width="239" height="121" as="geometry" />
        </mxCell>
        <mxCell id="25" style="edgeStyle=orthogonalEdgeStyle;html=1;fontSize=28;exitX=0.873;exitY=0.006;exitDx=0;exitDy=0;exitPerimeter=0;" parent="1" source="Z-ONA9Y9qmdscowLKf11-36" target="5" edge="1">
          <mxGeometry relative="1" as="geometry">
            <mxPoint x="1113.7399999999998" y="585" as="sourcePoint" />
            <Array as="points" />
          </mxGeometry>
        </mxCell>
        <mxCell id="7" value="" style="shape=image;verticalLabelPosition=bottom;labelBackgroundColor=default;verticalAlign=top;aspect=fixed;imageAspect=0;image=data:image/svg+xml,PHN2ZyB4bWxucz0iaHR0cDovL3d3dy53My5vcmcvMjAwMC9zdmciIG92ZXJmbG93PSJ2aXNpYmxlIiB2aWV3Qm94PSItNC42NDkgLTAuNjY3IDEyMCA2MCIgaGVpZ2h0PSI2MCIgd2lkdGg9IjEyMCI+PHBhdGggZmlsbD0iI2RhNGUzMSIgZD0iTTU1LjM1IDQuNjAyYy05LjIzIDAtMTYuNzEzIDcuNDgyLTE2LjcxMyAxNi43MTNTNDYuMTIgMzguMDI4IDU1LjM1IDM4LjAyOHMxNi43MTMtNy40ODMgMTYuNzEzLTE2LjcxM1M2NC41OCA0LjYwMiA1NS4zNSA0LjYwMnptMCAzMS4yOGMtMi42MjYgMC00Ljc1NS0xLjc1NC00Ljc1NS0zLjkxOGg5LjUxYzAgMi4xNjMtMi4xMyAzLjkxOC00Ljc1NSAzLjkxOHptNy44NTQtNS4yMTVoLTE1Ljcxdi0yLjg1aDE1Ljd2Mi44NXptLS4wNTYtNC4zMTVINDcuNTRsLS4xNTUtLjE4Yy0xLjYwOC0xLjk1My0xLjk4Ny0yLjk3Mi0yLjM1NC00LjAxLS4wMDYtLjAzNCAxLjk1LjQgMy4zMzcuNzEyYTQyLjE5IDQyLjE5IDAgMCAwIDEuNzU3LjM1NWMtMS4wMDItMS4xNzQtMS41OTctMi42NjctMS41OTctNC4xOTMgMC0zLjM1IDIuNTctNi4yNzggMS42NDItOC42NDQuOTAyLjA3MyAxLjg2NyAxLjkwNCAxLjkzMiA0Ljc2Ny45Ni0xLjMyNSAxLjM2LTMuNzQ2IDEuMzYtNS4yMyAwLTEuNTM3IDEuMDEzLTMuMzIyIDIuMDI1LTMuMzgzLS45MDMgMS40ODguMjM0IDIuNzY0IDEuMjQ0IDUuOTI4LjM4IDEuMTkuMzMgMy4xOS42MjMgNC40NTcuMDk3LTIuNjM1LjU1LTYuNDggMi4yMjItNy44MDYtLjczNyAxLjY3LjExIDMuNzYzLjY4OCA0Ljc2OC45MzQgMS42MjIgMS41IDIuODUgMS41IDUuMTc2IDAgMS41Ni0uNTc1IDMuMDI2LTEuNTQ2IDQuMTczIDEuMTA0LS4yMDcgMS44NjYtLjM5NCAxLjg2Ni0uMzk0bDMuNTg0LS43YzAgMC0uNTIgMi4xNC0yLjUyMiA0LjIwNHoiLz48cGF0aCBmaWxsPSIjZTY1MjJjIiBkPSJNOS42NDMgNDEuNTI0Yy43NzgtLjEzIDEuNzk3LS4yNCAzLjA5My0uMjQgMS41OTMgMCAyLjc2LjM3IDMuNSAxLjAzNy42NjcuNTkzIDEuMDkzIDEuNSAxLjA5MyAyLjYxMiAwIDEuMTMtLjMzMyAyLjAyLS45NjMgMi42NjctLjg3LjkwOC0yLjI0IDEuMzctMy44MTYgMS4zNy0uNDgyIDAtLjkyNi0uMDItMS4yOTctLjF2NWgtMS42em0xLjYgNi4wMmMuMzUyLjA5My43OTcuMTMgMS4zMzQuMTMgMS45NDUgMCAzLjEzLS45NjMgMy4xMy0yLjY1IDAtMS42NjctMS4xODUtMi40NjMtMi45NDUtMi40NjMtLjcwNCAwLTEuMjQuMDU2LTEuNTIuMTN6bTcuODkzLjE0OGwtLjA3NC0yLjc5N2gxLjQyNmwuMDc0IDEuNzc4aC4wNTZjLjQwOC0xLjIwNCAxLjQwOC0xLjk2NCAyLjUtMS45NjQuMTY3IDAgLjI5Ni4wMi40NDUuMDM3djEuNTM3Yy0uMTY3LS4wMzctLjMzMy0uMDM3LS41NTYtLjAzNy0xLjE0OCAwLTEuOTYzLjg1Mi0yLjE4NiAyLjA3NWE0Ljg4IDQuODggMCAwIDAtLjA1Ni43NnY0Ljc4aC0xLjYzdi02LjE2OHptMTMuOTk0IDEuNmMwIDMuMzE2LTIuMzE1IDQuNzYtNC40NjQgNC43Ni0yLjQwOCAwLTQuMjk3LTEuNzc4LTQuMjk3LTQuNjEyIDAtMi45ODIgMS45ODItNC43NDIgNC40NDYtNC43NDIgMi41NzUgMCA0LjMxNiAxLjg3IDQuMzE2IDQuNTk0em0tNy4wOTQuMDkzYzAgMS45NjQgMS4xIDMuNDQ1IDIuNzA0IDMuNDQ1IDEuNTU2IDAgMi43MjMtMS40NjMgMi43MjMtMy40ODIgMC0xLjUyLS43Ni0zLjQyNy0yLjY4Ni0zLjQyNy0xLjkwOCAwLTIuNzQgMS43NzgtMi43NCAzLjQ2NHptOS4xNTItMi4wNzZsLS4wNzQtMi40MjZoMS40MjZsLjA3NCAxLjQ2M2guMDU2Yy41LS44NTIgMS4zMzQtMS42NSAyLjgzNC0xLjY1IDEuMjA0IDAgMi4xMy43NCAyLjUyIDEuNzk3aC4wMzdhMy41NCAzLjU0IDAgMCAxIDEuMDE5LTEuMTY3Yy41MzctLjQwNyAxLjEtLjYzIDEuOTYzLS42MyAxLjIwNCAwIDIuOTY0Ljc3OCAyLjk2NCAzLjl2NS4yNmgtMS41OTNWNDguOGMwLTEuNzQtLjY1LTIuNzYtMS45NDUtMi43Ni0uOTQ1IDAtMS42NS42ODUtMS45NDUgMS40NjNhMi43OSAyLjc5IDAgMCAwLS4xMy44MTV2NS41MzhINDAuOHYtNS4zN2MwLTEuNDI2LS42My0yLjQ0NS0xLjg3LTIuNDQ1LTEgMC0xLjc2LjgxNS0yLjAyIDEuNjMtLjA5My4yMjItLjEzLjUyLS4xMy43OTd2NS40aC0xLjU5M3YtNi41NHptMTYuMzU3IDIuMzU1Yy4wMzcgMi4yMDQgMS40MjYgMy4xMTIgMy4wNzUgMy4xMTIgMS4xNjcgMCAxLjktLjIwNCAyLjQ4Mi0uNDYzbC4yOTYgMS4xNjdjLS41NzQuMjYtMS41NzQuNTc0LTMgLjU3NC0yLjc2IDAtNC40MDgtMS44MzQtNC40MDgtNC41MzhzMS41OTMtNC44MTYgNC4yMDUtNC44MTZjMi45NDUgMCAzLjcwNSAyLjU1NiAzLjcwNSA0LjIwNWE0LjA3IDQuMDcgMCAwIDEtLjA1Ni43NnptNC43OC0xLjE2N2MuMDItMS4wMi0uNDI2LTIuNjMtMi4yNi0yLjYzLTEuNjY3IDAtMi4zNyAxLjUtMi41IDIuNjN6bTUuNTU1LTUuNzZ2Mi4xNWgyLjMzNHYxLjI0SDYxLjg4djQuODM1YzAgMS4xLjMxNSAxLjc0IDEuMjIzIDEuNzQuNDQ1IDAgLjcwNC0uMDM3Ljk0NS0uMWwuMDc0IDEuMjRjLS4zMTUuMS0uODE1LjIyMi0xLjQ0NS4yMjItLjc2IDAtMS4zNy0uMjYtMS43Ni0uNjg1LS40NDUtLjUtLjYzLTEuMjk3LS42My0yLjM1M3YtNC45SDU4Ljl2LTEuMjRoMS40VjQzLjIzem00LjE3LTIuMDQ3aDEuNjN2NS42MTNoLjAzN2EzLjA3IDMuMDcgMCAwIDEgMS4xNjctMS4xNjcgMy4zNCAzLjM0IDAgMCAxIDEuNjY3LS40NDVjMS4yMDQgMCAzLjEzLjc0IDMuMTMgMy44MTZ2NS4zMzRoLTEuNjNWNDguN2MwLTEuNDQ1LS41MzctMi42NS0yLjA3NS0yLjY1LTEuMDU2IDAtMS44Ny43NC0yLjE4NiAxLjYtLjA5Mi4yNC0uMS40ODItLjEuNzc4djUuNGgtMS42M1Y0MC43em0xMS4xODggOC45NjRjLjAzNyAyLjIwNCAxLjQyNiAzLjExMiAzLjA3NSAzLjExMiAxLjE2NyAwIDEuOS0uMjA0IDIuNDgyLS40NjNsLjI5NiAxLjE2N2MtLjU3NC4yNi0xLjU3NC41NzQtMyAuNTc0LTIuNzYgMC00LjQtMS44MzQtNC40LTQuNTM4czEuNTkzLTQuODE2IDQuMjA1LTQuODE2YzIuOTQ1IDAgMy43MDUgMi41NTYgMy43MDUgNC4yMDVhMy45NiAzLjk2IDAgMCAxLS4wNTYuNzZ6bTQuNzgtMS4xNjdjLjAyLTEuMDItLjQyNi0yLjYzLTIuMjYtMi42My0xLjY2NyAwLTIuMzcgMS41LTIuNSAyLjYzem0xMS4wOTQgMi45MWwuMDc0IDIuNDY0SDkxLjc0bC0uMDkzLTEuNDYzSDkxLjZjLS40MDguNzIyLTEuMzcgMS42NjctMi45NjQgMS42NjctMS40MDggMC0zLjA5My0uNzk3LTMuMDkzLTMuOTI3di01LjI0MmgxLjYzdjQuOTQ1YzAgMS43MDQuNTM3IDIuODcgMiAyLjg3IDEuMDkzIDAgMS44NTItLjc2IDIuMTUtMS41YTIuMjQgMi4yNCAwIDAgMCAuMTQ4LS44MzR2LTUuNDgzaDEuNjN6bTIuNDgzLjgxNGMuNS4yOTYgMS4zNTIuNjMgMi4xNjcuNjMgMS4xNjcgMCAxLjcyMi0uNTc0IDEuNzIyLTEuMzM0IDAtLjc3OC0uNDYzLTEuMTg1LTEuNjUtMS42My0xLjYzLS41OTMtMi40LTEuNDYzLTIuNC0yLjUzOCAwLTEuNDQ1IDEuMTg1LTIuNjMgMy4wOTMtMi42My45MDggMCAxLjcwNC4yNCAyLjE4Ni41NTZsLS40IDEuMTg1Yy0uMzUyLS4yMjItMS0uNTM3LTEuODM0LS41MzctLjk2MyAwLTEuNDgyLjU1Ni0xLjQ4MiAxLjIyMyAwIC43NC41MTggMS4wNzQgMS42ODUgMS41MzcgMS41MzcuNTc0IDIuMzUyIDEuMzUyIDIuMzUyIDIuNjg2IDAgMS41OTMtMS4yNCAyLjcwNC0zLjMzNCAyLjcwNC0uOTgyIDAtMS45LS4yNi0yLjUyLS42M3oiLz48L3N2Zz4=;" parent="1" vertex="1">
          <mxGeometry x="1080" y="154.5" width="260" height="130" as="geometry" />
        </mxCell>
        <mxCell id="9" value="" style="shape=image;verticalLabelPosition=bottom;labelBackgroundColor=default;verticalAlign=top;aspect=fixed;imageAspect=0;image=data:image/svg+xml,PHN2ZyB4bWxucz0iaHR0cDovL3d3dy53My5vcmcvMjAwMC9zdmciIGlkPSJzdmcyOTQ4IiBoZWlnaHQ9IjkwIiB3aWR0aD0iMjYwIiB2ZXJzaW9uPSIxLjEiIHZpZXdCb3g9IjAgMCAyNjAgOTAiPgogIDxkZWZzIGlkPSJkZWZzMjk1MCIvPgogIDxnIGlkPSJsYXllcjEiIHRyYW5zZm9ybT0idHJhbnNsYXRlKDEyMS4wNjMwNiwtMzU1LjkzOTc2KSI+CiAgICA8cGF0aCBzdHlsZT0iZmlsbDojMDAwMDAwO2ZpbGwtb3BhY2l0eToxO2ZpbGwtcnVsZTpldmVub2RkO3N0cm9rZTpub25lIiBpZD0icGF0aDI4MzgiIGQ9Im0gLTEwMS40NzU3Nyw0MDAuMDA0ODYgYyAtMC4wNDMxLDguMTk3NSA1Ljk2NzgyMiwxMy4wODQzOCAxNS41NjAwMDUsMTAuODYyNSBsIDAsLTIxLjcyNSBjIC05LjcxMzQzMywtMi45NTgxMiAtMTUuNTE5Mzc1LDMuMDI2NTYgLTE1LjU2MDAwNSwxMC44NjI1IG0gMTUuODUzNDQyLC00Mi4yNzYyNSAxMy4yMTEyNSwwIDAsNjIuNTMzNDQgYyAtMTIuNjYzNDM3LDIuMDcwMzEgLTI0Ljc5MTg3LDMuMzgzNDQgLTMzLjQ2ODQ0MiwtMS40NjgxMyAtMTEuMTcxODcsLTYuMjQ2MjUgLTEyLjA3LC0yNi4wOTU2MiAtMy4yMjk2OCwtMzQuOTM2MjUgNC40ODIxOCwtNC40ODE4NyAxMy41MDU2MjIsLTcuNjM3MTggMjMuMTkzNDM1LC01LjU3ODEyIGwgMCwtMTkuNjcgYyAtMC4wMjUzMSwtMC40MTY4OCAtMC4wNDg3NSwtMC44MzE4OCAwLjI5MzQzNywtMC44ODA5NCIvPgogICAgPHBhdGggc3R5bGU9ImZpbGw6IzAwMDAwMDtmaWxsLW9wYWNpdHk6MTtmaWxsLXJ1bGU6ZXZlbm9kZDtzdHJva2U6bm9uZSIgaWQ9InBhdGgyODQwIiBkPSJtIC01MC45Nzk0MTksMzcxLjUyNjk5IC0xMy4yMTEyNTEsMCAwLC0xMy43OTg0NCAxMy4yMTEyNTEsMCAwLDEzLjc5ODQ0IHoiLz4KICAgIDxwYXRoIHN0eWxlPSJmaWxsOiMwMDAwMDA7ZmlsbC1vcGFjaXR5OjE7ZmlsbC1ydWxlOmV2ZW5vZGQ7c3Ryb2tlOm5vbmUiIGlkPSJwYXRoMjg0NCIgZD0ibSAxMDcuNTU1NzcsNDExLjQ1NDQyIGMgMTQuNDAyMTgsNS41OTY4OCAxNS45OTU2MiwtMjUuNzc4NzUgMS40NjgxMiwtMjIuODk5NjggLTkuMDIxODcsMS43ODgxMiAtOC43MzIxOCwyMC4wNzY4NyAtMS40NjgxMiwyMi44OTk2OCBtIDAuNTg3MTgsLTMzLjc2MjE4IGMgMTAuOTk4NDQsLTEuMTc1OTQgMTkuMjk1OTQsMy42Nzc1IDIyLjYwNjI1LDExLjE1NjI1IDUuNjQ4MTMsMTIuNzYwMzEgLTAuMzEwNjIsMjcuNDAyMTggLTkuMzk0NjgsMzEuNzA3MTggLTQuNzA4MTMsMi4yMzEyNSAtOS42MzgxMywyLjQ0Mzc1IC0xNC4wOTIxOSwyLjA1NSAtMTMuNzY2ODc0LC0xLjIwMDYyIC0yMi40NDkzNzQsLTE1LjIzMDYyIC0xNy42MTQ5OTksLTMwLjgyNjU2IDAuNzU2NTYyLC0yLjQ0MDk0IDEuNjA2NTYyLC0zLjkzNDA2IDIuMDU1MzEyLC00LjY5NzE5IDIuOTkyNSwtNS4wODgxMiA4LjA0NDY4OCwtOC40OTY4NyAxNi40NDAzMDcsLTkuMzk0NjgiLz4KICAgIDxwYXRoIHN0eWxlPSJmaWxsOiMwMDAwMDA7ZmlsbC1vcGFjaXR5OjE7ZmlsbC1ydWxlOmV2ZW5vZGQ7c3Ryb2tlOm5vbmUiIGlkPSJwYXRoMjg0OCIgZD0ibSAtMzIuNzc3MDEyLDQwNi40NjM1OCBjIC0zLjY1NDA2Miw2LjE0MDk0IDUuNTI2ODc1LDcuNjEyMTkgMTEuNDQ5Mzc1LDUuODcxODcgbCAwLC05LjEwMTI1IGMgLTQuNTUwNjI1LDAuNjM1MzIgLTkuNzMwMzEyLDAuMzM5NjkgLTExLjQ0OTM3NSwzLjIyOTM4IG0gMjMuMTkyODEzLDE0LjM4NTYyIGMgLTEwLjkxMzEyNSwwLjYyNzgyIC0yNy40OTgxMjUsNC4zNDUzMiAtMzMuNDY4NDM4LC0yLjkzNTYyIC0zLjUwNzUsLTQuMjc4MTMgLTMuMTMwMzEyLC0xMi40Mzc4MSAwLC0xNi40NDA5NCA0LjA0NTMxMywtNS4xNzI1IDEyLjg3NTkzOCwtNi4zMDA2MiAyMC44NDQzNzUsLTcuMDQ1OTQgMC43MjM0MzgsLTEuNzgxMjUgMC4yMzU2MjUsLTQuNjc5MzcgLTAuNTg3MTg3LC01Ljg3MjE4IC03LjI4ODc1LC0xLjg1NjU3IC0xNC41MzA2MjUsMS4wMjAzMSAtMTkuNjY5Njg4LDMuMjI5MzcgbCAwLC0xMC4yNzUgYyA3Ljc2MTg3NSwtMy41NjYyNSAyNS43NDA2MjUsLTcuMzIxMjUgMzEuMTE5Njg4LDAuODgwNjMgMi44MjUsNC4zMDc4MSAxLjc2MTI1LDExLjgyMDYyIDEuNzYxMjUsMTguNDk1NjIgbCAwLDE5Ljk2NDA2IHoiLz4KICAgIDxwYXRoIHN0eWxlPSJmaWxsOiMwMDAwMDA7ZmlsbC1vcGFjaXR5OjE7ZmlsbC1ydWxlOmV2ZW5vZGQ7c3Ryb2tlOm5vbmUiIGlkPSJwYXRoMjg1MiIgZD0ibSAzNi44MDIzMDEsNDIxLjQzNjc0IC0xMy4yMTEyNSwwIDAsLTE3LjAyODEzIGMgMCwtNS42MDY1NiAwLjkwNjg3NSwtMTIuNzE1NjIgLTIuMDU1NjI1LC0xNC45NzI4MSAtMi4zMiwtMS43Njg3NSAtNy44MjQwNjMsLTAuODgxMjUgLTExLjE1NTYyNSwwIGwgMCwzMi4wMDA5NCAtMTMuMjExNTYyOCwwIDAsLTQwLjgwODQ0IGMgMTMuNTA1MzEyOCwtMy41MDgxMyAzNy44ODMxMjQ4LC03LjI2OTM4IDM5LjYzNDA2MjgsOS42ODgxMiAwLjg2MzQzNyw4LjM2MDYzIC0wLjYzOTY4OCwyMC45MDQwNyAwLDMxLjEyMDMyIi8+CiAgICA8cGF0aCBzdHlsZT0iZmlsbDojMDAwMDAwO2ZpbGwtb3BhY2l0eToxO2ZpbGwtcnVsZTpldmVub2RkO3N0cm9rZTpub25lIiBpZD0icGF0aDI4NTYiIGQ9Im0gNTYuNDcyMzkzLDQwNy4zNDQzMyBjIDIuMjIzMTI1LDMuNTk2ODcgOC4yNDMxMjUsNC45NDU2MiAxMy4yMTA5MzgsMi42NDIxOSAtMC4yNzI4MTMsLTYuODcwOTQgLTAuMzY4MTI1LC0xMy45MTkzOCAtMC4yOTM0MzgsLTIxLjEzODEzIC0xMS40MTc1LC0zLjAxNjU2IC0xOC4yMjE4NzUsOS45MTU5NCAtMTIuOTE3NSwxOC40OTU5NCBtIDMzLjE3NSwtMjcuODkwMzEgYyAtMS4xNzU5MzcsMy41MjE1NiAtMi44OTY4NzUsNi40OTc1IC00LjQwMzc1LDkuNjg4NDMgLTEuMzYxNTYyLDAuMzA1IC0yLjU0MTU2MiwtMC41NDEyNSAtMy4yMjk2ODcsMCAtMC4zMDEyNSwxNC4zMTA5NCAzLjA0NzgxMiwzMy43MTE1NyAtMi42NDIxODgsNDQuMDM3MTkgLTMuNDI1OTM3LDYuMjE2ODggLTkuNzMzNDM3LDEwLjIwNTMxIC0xOS4zNzY1NjIsMTAuODYyODEgLTcuMDI0Njg4LDAuNDc5MDcgLTEyLjQ3Njg3NSwtMC42Njg3NSAtMTcuNjE1LC0yLjY0MjE4IGwgMCwtMTIuMzMwNjMgYyA2LjAyNjU2MiwzLjUxODc1IDIxLjI1NSw2LjM4NzUgMjUuNTQxODc1LC0wLjg4MDk0IDEuMjYxMjUsLTIuMTM4NDMgMS4xODEyNSwtNC4zNDg3NSAxLjc2MTI1LC03LjYzMzEyIC0yLjc2LDAuMTQ1IC01LjQzOTM3NSwxLjQyMzEyIC04LjgwNzE4OCwxLjQ2ODEyIC0xMy44NDU5MzcsMC4xODM3NSAtMjIuNDExODc1LC0xMC44NDA5MyAtMTkuMDgzMTI1LC0yNi4xMjkzNyAxLjI4NzUsLTUuOTEzNzUgNC43NTI1LC0xMC42NzUzMSA5LjM5NSwtMTMuNTA0NjkgOS42NDE4NzUsLTUuODc2NTYgMjQuNDYyODEzLC01LjQzMDMxIDM4LjQ1OTM3NSwtMi45MzU2MiIvPgogICAgPHBhdGggc3R5bGU9ImZpbGw6IzAwMDAwMDtmaWxsLW9wYWNpdHk6MTtmaWxsLXJ1bGU6ZXZlbm9kZDtzdHJva2U6bm9uZSIgaWQ9InBhdGgyODYwIiBkPSJtIC01MC45NzkzODksMzc4LjUxNDA1IGMgLTAuMDE1LDkuNzI4NDQgLTAuMDEyOCwxNi43MTkwNiAtMC4wMTM3NSwyOC41Mzc4MSAtMC41NjEyNSwxMS42MTQ2OSAtMC40MzA2MjUsMjAuODYzNzUgLTQuNjgzNDM4LDI2LjQyMTI1IC0wLjgzODc1LDEuMDk1OTQgLTIuNjIsMi42OTQ2OSAtNC4xMTAzMTIsMy44MTY4OCAtMS4yNTE1NjQsMC45NDIxOCAtMy42MzY4NzYsMi44NTI4MSAtNC45OTA5MzksMi45MzU5MyAtMS4zNjUsMC4wODM4IC00Ljg3MTg3NSwtMS44OTUgLTYuNDU5MDYyLC0yLjY0MjUgLTIuMDg0MDYzLC0wLjk4MTU2IC00LjAxMDYyNSwtMi4yODUgLTYuMTY1LC0yLjkzNTYyIDUuMDI1MzEyLC0zLjExNDA2IDkuNzk1NjI1LC01LjQ0ODc1IDExLjc0MzEyNSwtMTEuNzQzNDQgMS42OTM3NSwtNS40NzQzNyAxLjQ2ODEyNSwtMTMuNDA3MTkgMS40NjgxMjUsLTIxLjEzODEyIDAsLTcuNjMzNzUgMC4wMzQwNiwtMTYuNTA4NzUgMC4wMzQwNiwtMjMuMjQ4NzUgbCAxMy4xNzcxODksLTAuMDAzIHoiLz4KICA8L2c+Cjwvc3ZnPg==;" parent="1" vertex="1">
          <mxGeometry x="123.76" y="363.65999999999997" width="210" height="72.69" as="geometry" />
        </mxCell>
        <mxCell id="11" value="&lt;a style=&quot;box-sizing: border-box; background-color: rgb(255, 255, 255); text-decoration-line: none; font-family: -apple-system, BlinkMacSystemFont, &amp;quot;Segoe UI&amp;quot;, &amp;quot;Noto Sans&amp;quot;, Helvetica, Arial, sans-serif, &amp;quot;Apple Color Emoji&amp;quot;, &amp;quot;Segoe UI Emoji&amp;quot;; text-align: start;&quot; href=&quot;https://github.com/SergioRicJr/observability-mtl-instrument&quot; class=&quot;color-fg-default&quot; data-turbo-frame=&quot;repo-content-turbo-frame&quot; data-pjax=&quot;#repo-content-pjax-container&quot;&gt;observability-mtl-instrument&lt;/a&gt;" style="rounded=1;whiteSpace=wrap;html=1;fontSize=20;fontStyle=1" parent="1" vertex="1">
          <mxGeometry x="100" y="520" width="260" height="70" as="geometry" />
        </mxCell>
        <mxCell id="12" value="Pools de aplicações" style="text;html=1;strokeColor=#b85450;fillColor=#f8cecc;align=center;verticalAlign=middle;whiteSpace=wrap;rounded=0;fontSize=28;fontStyle=1" parent="1" vertex="1">
          <mxGeometry x="133.76" y="105" width="190" height="60" as="geometry" />
        </mxCell>
        <mxCell id="16" value="PACOTE DE OBSERVABILITY" style="text;html=1;strokeColor=#d79b00;fillColor=#ffe6cc;align=center;verticalAlign=middle;whiteSpace=wrap;rounded=0;fontSize=28;fontStyle=1" parent="1" vertex="1">
          <mxGeometry x="780" y="70" width="920" height="60" as="geometry" />
        </mxCell>
        <mxCell id="17" value="" style="shape=image;verticalLabelPosition=bottom;labelBackgroundColor=default;verticalAlign=top;aspect=fixed;imageAspect=0;image=data:image/png,iVBORw0KGgoAAAANSUhEUgAAAVsAAABdCAYAAAAL4cVEAAAAAXNSR0IArs4c6QAAAARnQU1BAACxjwv8YQUAAAAJcEhZcwAAFiUAABYlAUlSJPAAAC+tSURBVHhe7Z0FfBxVHsf/bVybNHUXqhSrUAqlLVbc3eWOw/Www93dDw6OO+yAw+0o7m2RUqOFuluSxj3pzfdlXvq6md3sZmclZb58ls5Okt3Z2Znf+7+/vXabLMTDw8PDI6JslWLbYH2i0pp6WVFaa+9pTk5KgnTLSJTE9u3sPR4eHh6Ro02LLaK6qKhGNlbVS1ltg8wrqLb3b5L8ynr5zX7uRJf0ROmfkyzJCY1i290S3h6ZiZKVnCC9spKkQ0p7td/Dw8PDDdqc2C4rrpVlJTUyJ79KCqsaZMHG6kaxrdkk8wv9i2tLYOUitplJ7ZXY8nxQbrIM6pgi/bKTJN3a7+Hh4dFa2oTYLrEE9ndLSD9aUirrKxosq7VOVpfVSkl1g9RZR48l6zYplsXbKMBJlhWcION6pMuOXVMtAU6RtETP9eDh4REacS22U5aUyderKmT2hirJr6iXpZboWkcsCdbP8LXWWYde1yASjQ/Q1RJeXA9Yu2O7p8nB22Qpv6+Hh4dHMMSd2HI0Hy4ulX/PLVL+2MKqeqmyzFcOEnuSR6JldSJztZbQ1ls/aPxpdMDHm53cXonv4YOy5eRtcyTLeu7h4eERiLgS23cXlsqTMwuVBVtcXa8CYCYIbft27Syrlu1NUrvJ+r91+L6/Fy3w73awrNsTh2fLX3bo6Pl1PTw8/BIXYjttdYXc8O0GmV9QbVmr/u3UzWK7ydpupyxb/LWBPkDPzEQ5YXiOet0Hfyyw97oLLo0k63HHhC5yxOBsL53Mw8OjGTETW6zRlaW18sQvhfLWghLLkrWdr6ZO+TxvFFtL3Ox9dZZlW+/n8PkVMgluHd9FuluCe8+0fHlnUWnjDyPImO6pcstuXWV4pxRPdD08PJqI+rwXbSypaZD3FpXIqR+skn/P2dgotE6YWmVrajsEjP2WhYtNy/+dyElNkIMHZsr4XulSXbdJNlbX2z+JLD+sqZL9/rtMnrQGEbImYuXi8PDwiC+iKrbV9Zvkt8JqufX79XLVl+vVNnLZRCBDUP/MFq9Ggxapbf5HWJTbd06Rs3bsqJ6jzwmWOEeT26fmq8Fk+poKKcff4eHh8YcmamJbaVmXX6+skL9+sU5emFssRa20NHVewiZbPJ0s205pCXLoNtkqgAWpie0kz9oXbWasq5Jj31kpL8+z3SQeHh5/WKIithsq6uT9RaVy7/R8S4Aq7b2tZFM7NTXfRCBNBceaW6xkCIzvlWE/a3xOaW4sIDB3+9T18uzsjbKkqMbe6+Hh8Ucj4mKLq+DpWRvlvh/yZdaGKntv60Felcg2N2gV5MFuYwlrr6xEe49IbmqCjO6aqgJlsYA84Yd+KpB7rMHms+Vl9l4PD48/EhHNRqB/AYGij5eWS2mNO9No7Nj27dspy9bpFTtawnr+Th3lbOthstiyKu//sUDe+L3E3uMfeiOQy7u2vE4JpVvgNx6alywXjcqTgwZm2Xtjw8KFC+Xrr7+2n/knKSlJUlJSpGPHjrLNNttI37597Z94xIIPP/xQ1q5dq7YPOOAA6dq1q9r2iH8iJrYz1lfJ4zMK5Ivl7gaIENtGd22jt9b38DunJcgVYzvJicNz7D2NVNY1yMvziuXar9fbe5zB33vi8A6yYGONfLKsXGooUXORBGug2CYnSc6xBoNjhnSw90aff/3rX3LaaafZz4Jnl112UX933HHHSYcOsTv+rZnnn39ehg8fLqNGjbL3bGbixIny1VdfqW3+3X333dW2R/wTETfC6rI6ZUF+ZomV25F4hBZ9VSIbwjiRZpmq23dOlVFdU+09zuzaM136ZierMmG3hRbqLYt8oSXkz84qcsWtEm2mTp0qZ599tuywww6yfn3ggcsjNObMmSMTJkyQU045RQoLC+29HlsLrostIvXab8VKbMlAcBOszr37bg584cENhSEdU2Ryv0z7WXPo8jWpT4bqZVvuktvDCTScdpB3TcuXxTTXiTG4CG688UbHx3XXXSdXXHGFEoAuXbrYfyGybNkyOeKII6Smxgv6ucVVV10VlGvHo23iqtgWVNbLv+YUyRMzClWPWbcpqm6Quyd1kwf27N5o4TpkIgQiM7m9DOuUIn2yk+w9W7J7rwzZpXt6U0PxSILV/M3KCrn6y3WyMMZZCnl5eXLDDTc4Pm6++Wa56667lNth9uzZctBBB9l/JfLtt9/KnXfeaT/z8PAIhKtiO21NhfzbElsqxCJBHUExyyo8bFCWjOrm7A5IsoSya4azmCKhA3NokZjeuMMH2icixAM6JEsXy8qNNKSF/bi2Up60Bqe2AJbtu+++K7vuuqu9R+Szzz6ztzw8PALhitgymf9iRbncMXWDrKuoa9wZIdaV1ynL8/F9eqjKMF+yUxJkUm9nMYX+lpCO7ZFmB9k2s3uvdNnF2s9rkpNL79poUFHXIO8vLlVVde46XSLHoYceam+J/PDDD1JXF9x3HuzvaWpr3XWxBPt6oR6nEw0NDeoRbdw4dnDrddzC7WshFrgititKauUDSzAWFUX+hNBHVv1rieEpw7eMhqOfSZaKttQAZnheihJXE/YNzk2xnzWu1BCtRjJUl32+vEK+XVnRJgR3v/32s7eswaKiQubNm2c/E+XDPfbYY9XjoYceUvteffVVFUVPTU2VHj16yLnnnqt8vr5UVVXJ3XffLQceeKD0799fpZx169ZNJk+eLJdddpksWLDA/k1nbrrpJvW+f/7zn9VzxO7FF1+UP/3pTzJw4EBJTk6Wzp07y9FHHy0///yz+h0Nr43LZNKkSZKZmSk5OTkq8+LJJ59slvHij/fff18FD/m7rKwsyc7OlnHjxsk555wjX3zxhf1bzeFvOG7zmG677bam8zhz5kx7rzOvv/66nHzyyTJ06FB1zshk4Bw8++yzUlkZXBHRjz/+KKeffrrsvPPO6tjT09NVEJTXfeaZZwIOHGVlZU3Hqs99IDjP+vfNa8eE6+i5556TvffeW6Ubcu2Q/cK5PeOMM+Spp56S6urWL4MVC8JO/SJ/9vlfi+TW7zbYeyLLinOGCC5V3AnfrCyX495daf+ksSyX/NWH9+pu73FmvWV9P/pzofxj1kb1nL+7cudOTb0UgEyKO6dtkDn50ftCyYR4yDp22kJGGjP1a9CgQfL777+r7WCYNm2auug1a9asUaII3NzcqEB62CGHHCInnnhiM8F65ZVX5JhjjrGfibzxxhvy17/+VZYuXWrvaQ6vi4/4/PPPt2YmzQdCnRaFD5pjOumkk5TQO4GYIjCIMNb5vvvuKxs3Nl4PvnDDf/TRR9K+vbNtUlpaKhdddJH885//tPc0h+O95JJL5Pbbb1eCaMIAxPH643//+586PjBTvz7++GP1+Z5++mn13Iltt91WDQL+8qPJKCEwh7AFkgJSzPidAQMG2Hs2Q+YE5xz4Nz8/X237Y4899mgafPiXz2TCueD9Fi1aZO9xpk+fPuqzjRgxwt4T34Rl2eJD/X51hTw32/kidRtWwNW3GEbnyK5pKq9Wk5HUXnbt4d+FoMFFsG2nlKYVFoZ2TJEhHbcs5x1kPY+G39aE5X+e/KVAKuK8cQ3ipOnUqVOT0Pqybt06JYy+NzFCZ7oi8AMfeeSRTULL6yHUCBNW33bbbaf2Y0VfeOGFyjINBFPgww47rEloBw8eLH/5y1/Ue+qBoKioSL0ngoWYIrRYhlhyvDcWsOaTTz5R1p0TCMuOO+7YJLQUgRx++OFN2RwUHmCVcQ7uv/9+GT9+fLMp8cEHH6w+U/fum40EUsDYx8Pf+WUQ00LL75AxghWPwGrmzp2rPpOTkNbX16v35tj5OQMCInfppZeqWQIDJVYukCWx/fbbq9S/SFJeXq7OmRZaBJVB6t5771VZMfpagOXLl6tZUCzcNa0hLMsW98EDPxbIf+YX23siyxkjcuTm3bs2+Wqp7vrbV+vkFfv9sQif3q+n7NglcC4tTLUGiTun5cv0NZUyqXeGXG5Ztjv55ODeOTVfnpuzMWIBPycYBK7epbPs0cdMcXOf1lq2VC9xwWvrhewExFJjWrYahIMbeKeddlIBNaZ/Z511lvpZQUGBskx0VdRRRx2lhI0puMl9992nLDDtS0RIfUXXtPoAwfz888+3EB8yKnbbbTdljWpwLzz44INK2LXFjBDhLkFoYciQITJ//ny1bcLf/P3vf1fbfI4XXnhBTb9NfvnlF5Umt2TJEvUc4cCK94VziaUGU6ZMkX322Udtm/h+RlwenH/cHxrE59Zbb1XZJJoZM2aoQcEEV8W1116rtkn/w3JFfE0WL16szrN2cSC4P/30kyQmbjZE3LRscYlwDQDHwozHfC9gABk5cmRT2iGzDlxN8U6rLVusr6mWUE1ZGr1a/wmWAJmzR7bz0ho/ApVZvbOTghJaSE1sL+nU5FpQnmv2UtAcOihLNQGPJouLauWdhaUqEBhP4Jd74oknZOzYsU03E1ZcS6lfWGtvvvmmsiqxUhB4LbSA/1YLLeLy2muvNRNaQJwQXA3WDsfkD25QBNkUWmCgOPXUU+1njWAt41c1XRMJCQny8ssvN7kOEB0E2AQR1ZYlFiCi5yu0gMhhGaalpann+CzdKAjh/CNOptACx0x+NIObhkHHBD8w1quGY/cVWsBtwLH37NlTPZ81a5Y88sgjajsSfPnll/ZW4/fiK7TAd3reeefZz0RdM22BVovtitJaedWyKCliiAaI4UTLAjW0VvluR3ZttKLSrCdjujVezMFADwWKGKBzeoL1aP6lDstLkQm9MqLanpGy4u9XVahS4WjBdAwRdXogTrm5uUpMEEZ+V0PQylfMfGHqh9XkBG4BfaMgdHfccYfa9gdWJIEzWLVqlRJDfxB88RUhzZgxY+ytxve95ppr7GdbgouEAQKY+q9cuTk+AFiGegp75ZVXSr9+/dS2E4gVrgwoKSlpsobD4YQTTvBr0fG5zECmr0+Yc6fdGYismc7nCzMVXCIaLPNoECioiNU+ffp0NTMK5LOOJ1oltgTFiJyTIxotduuZ3izVi2wBnW9LwcKRg5tbRP5AaPt1cM7HNWFNsZ0sazmaS9ystqzaz5eXydLi6BQ7MK3nwnV6UEKKf9ME/yB+PsSmJYiM++O3335r8iUyLXTqBWDCdJ9ItMZfJBsCiYfpAyU4hQ/ZH6aVjUia4JLQ7LnnnvaWf3CnaJxcEqFivp4TZlDMN/hnnjs9CASCTAXOP6xevbrZuXALHQgEri/80BTP+M4qyExg0PQ3kMcjrRLbNWVMdUvUygvR4rQRuZJoTPM07EtLbCcHDsiUwR2Dn/KTq4srAcGl0MEfFDkcNijb0c0QKQg8zt5QrSrM4gF8n6NHj1a+tFtuuUX5d3EHmNNuf9ApzB/mDe8U5XbC/D3E2h+IqD/MqWkgaxSYqmvMz8vNr32wgIV+9dVXB3x88MEH9m83ppqFS0sdvzIyNvv9fcuqQz33uFVM8Q507sMBfy5+YQ1NeQgqcg2SvcIgHyhzI54JWWzx1f68rkpmWmIQLSb2TreENNm62O0dPmQlJ8j5Ixsd9KHSOS2xxQKGffplKhcFoh4t1ljWLT5x/o003GxkDjg9iA7jXyQDAUEhoKIj1C2BqAVqyWje8C2JniZYsXXy+zqh/aihQp6wKWAPPPCAcoMEepgZDW6IbbCf0ReOGx+0JtB3ZBLsuQ8HXBb4iH3dI1jmXH/MbHDJMHMhB9rX4o1nQhbbgqp6+WRZWVSt2gMHZvmdxtM05qWDejYVO4QKAt6Sh4AUMZbZ6ZnVstvBLbBuf1pbKV+uiLzvFquFUlynh29mQSiQT8pr+8Ocigb7PqalGaiqyPw9tzATd/AVaghI4YoI5QGxqtJiANUixfdDalowBHvuw4VBhFnA22+/rdLzyLgw4Xv4/vvvVVATv7T5XcQzIYttfkW9TFkaveAN7N03U5L8KCIiPKxTcBeLL9mWUBMoC4YJlnXdLUolvBqCkPMK2laVTCiYLganijInzN9jMIgVppWHGJD+hPUVysMp0h4NCHhqXyei6xv480cw5z6YnFfEviUYBMjz/e9//6vOLdkUBCF9sz1Izdt///3tZ/FNSGJL5dWLvxYpqytanLlDrmTbxQf+aO3kvl92kgzODW5tMkT92KH4bqNn3XKao2XdxgLyezWBKsdMzBveLDyINuSTasHCQm+p2inecPPcm5V1vr5hJ3wDri2BRU1mCWmGpNtxvGeeeab908YiG4J28U5IYksWwoz10ctAgJFdUlUnr0iAtZyS2M6vL9iXCX0yVZpYNFllWbcs6bM1Yt7wJMoHMx1kWRiNWTIcC8zjNwsN/PHdd9+pyD9RdnKPY4l57BRQtATHrt0+BN7MElmz/JiilkAuhuLi4i38xSZYvATASBckzc8f+JjpjWB+/7r4JJ4JWmxx0ZJoP68gejc+Fu0uPdL9uhDChWyEHplJQbsSKA3ukpYY1TSwdRX1qt+tm2uhxQvkzOqqJiq6WiqQQNAor9XoSqNYQUmw5vrrrw9YZAHk85ITSpDx008/tfduxhStSPpEgYo2DQ2DWiqy0JVmQDmt6WMnyKgzH3AjBGqA/thjj/kNavH5L7/8crnnnntUHnJLswXyoDX++lbEE0EfYUl1vXwSxWox2LdfplrOJlIMzUtRaV3b5ASfMja5v2XdRrHIARYU1sjc/La3hE5LcIOY1UiPPvqoqohygui9WXlGP4NAObzRgBJkbSFSZEFfAn/+SPo86CR9UsiojvLFFLBIRfs19G/gHALHTP8E/Mi+EIyi9FdXoPGdXXDBBWrbZIKR80vgig5uvrz00ktbiLYv+LDNAQxXgT9hpmRX91LmmALlVccLQSsZKV+zotgBC4ZYYpgYQV3DO0ErxYQQ9Dwzqb0qDY4mq8rqZFlJZC2dWEEOJQ1VgBsUa5WbjPJRqtW++eYbtVIEBQ+6EACLht4OsYYkf91GEigPxlInxYteBASesGCxIs0qNbZpjuOLrlYD8nJpiMO5IPIeCR5++OGmDANcCZT3kk5FHwSsSj4PViylvxqCVE6LTJrls+RhU31IWTIDDOeIvg/kZiPevj0aTBjAdGohAk+xCyKNuFLWzbFh+eLDpQIRGOSCyRWONUHLTKkltt+tim6SPR28UkNRwigwwugWFi2WFNfI75Z1u7XClJFSYF008I9//ENFovHNcWPTgEY3jqEzFzdhoKKFaEIkHFHSU1qWiKenKyLRu3dvZT2a/lk+J4UhTpDmpNOwGHhoQ8m5CFS2Gg7Dhg1TIqtznAmAYZUysJEpQskz7R0B6xHRxcp1gvOgB02ghwIltRQpXHzxxarBDlYqvlaq0fzBbAVx1W4BXofXxUdMnw2ODZ+u7s/BwOVG6XM0CEo1WC9rWQwWJsy1putRNiJbhFUcolncoCG/mTXetkbw9+HLwx9Lao9Tbi7Ci0jRgzbe+pfSFQvL6/jjj/e7vDvTbKxcPqc/EGhSnRAcLTbgRmmvP7AQKTtGZJ1KX/XUHsHHUjWPy4T9dDzDJ62b1mj4PvlsFCWYWQT+wApGZOn94HQtMCDR5JzXQ/yDqWSMB4JqsVhS3SCPzSiQR36O3lpZ9Kb97Lh+0juKqVbBctDry1QVXTShiu4K1QaydRVPbQl6Nfz666+qwowEdywvXwGKZ1asWKHEFx8oQUCmuKHmBBNsw09NihVWfLQ+OylUiC+ZIbg1mEmYgahgoaSWgRFh1CtXtAYyIEj1wqXE7IbGSBxTrHKUwyEosWWl3Hum09s1tPy4cCD/9eVDequG4fFGLMR2bPc0Jbbjera+osvDwyN2BDVcsgrsytLouhFoeRiD2XrcUlxdL0XWw8PDo20SlNiSifDdqugWM7AKhPW2HjaLi2tVvq2Hh0fbJCixpWyUJbejycqy2qiWBcc7BCl5eHh4tE3iNuKAzsajtExfXamWHvfw8PAIhbgVW3h/UWnULeqWWFhULeWef8PDwyNE4lps5+ZXS22cTZ1nbqhSDXk8PDw8QiGuxfbNBSWyqrROuRTigfzKOpljDQCeZevh4REqcS228PrvJVJVHx/i9uLcYlm+lfYo8PDwiCxRF1tWR2DNLxrABMM7C0tlaVFtzK3b1WW18sny8pBKZvtmJ0nXKPe/9fDwiE+iLra9MpPkxOEd5NIxndQijfv1z5RxPdIsUUpUXbh8WWWJ3IM/FUR1zTNfeOv/zC8JuLQ4FW+7dE9Tn+eiUXly8eg8uXJsJxlt7fPw8PAIqlyXlQLGv7R52eZwoDLsroldlSjhHaCjVWlNvTU9r5PCqnpZbD1faU3V11XUya8F1U25pdeO6yxn7ZAb9faGMGVpmdz2/QZZsLFRbBHW7pmJ0iktUYblpSgrnQY1OZbV3iElQQZY2xwlecL7vrbMtXXE/jomz3qEXqfu4eERe4IS26XFtTL51aVS5lJg6IztcuTcnTqqVRJ8ybem6fRiQIBXl9WpFQq+sKbv6Unt5JQRuarFYTShj+y7C0uUYG7XOVWt4tvNeiCq9LbtYYmuv5Ub+Luzprizxj2CftnOneQ867x5eHi0PYISW6zMSz5bq0TPDfLSEuT+PbrJPv22XKLYCXy1+EuxgvH35ga5hI1bkObFKhWsSsP6Y6wcEaxtfcB/l8kv691pWDPIsqYvt8T2oIGt657k4eERW4Ly2SZbllvvLPe6bxFk+t+SsqAi+xiNrGjbt0NS1IUWaBTek/fPTpL0EIT2vYWlKk/YLfjssfj8Hh4e7hB0gCzB5Qa95NDOWFe51fY/uPzLtapbmltw9uM+T8/Dw8MvQbkREMRvV1XI8e+utPe4w7C8ZLl7UjcZtZU1xL7+63Xyj9nu9v49bUSOXLVLJ8lOdse6ZfmWQKugalijilVP6eLPUimsmNDWYHlsoKM/62DFEpaG+eijj1RjbdYo40GDbBp002B83Lhxst9++6klYDy2LoISW/itsFr2emWp6/mu54/sKH/ePldlKbhrO8eGL1dUyCnvr3TXqrVOzIUjG1PJ3IIFE1sjPHTd5+9YjNDfEjDxBJe3XuWAf/2t1hppENUHH3xQXnzxRbVwYUscfPDBcscdd8i2225r74keU6dOlSVLlqhlfjzcI+iZKYGh4ZYl6jaP/lwob/5eulX0G1hXXidXf7XWdddIN2sgIj85HuBGPPvss9VaYevXr7f3egSCRRNZUfa+++5zFFqnNbRYXXj77beP6mKGLKLIYpUsCz5nzhx7r4dbBG3ZkgP7yE8F8veZzdeWD5d+HZLk6l06y159M5Sot0UWFdXI5V+slelrKl23/nftmS5X7txJxrhYIGFatrgILrzwQrXtC5Yga4IhEoiGKbC77babWrufJb3jlVhbtizD/re//U0dh4YFFDl3rKfFIy8vT61Z9ssvv8h3330nzz333BbHyQq7LNcdae699165/PLL1TZLqd92221q28MdghZbKrg+WlImZ09Zbe9xlz7ZSXLz+C7Kfxtnq5cHpJ313/qKOrnCEtof11aqajO3OWZIB7lmXCflanELU2wHDRqk1vpvCYSWm/69996z94jcdNNNcv3119vP4o9Yii0r0u65555NQosfltVnDzzwQPXcH1999ZVavhvXA7Do5W+//SbdunVTzyOFJ7aRJWixBSqoTvtgpSyJ0LLmY3uky45dUiQ5yL4J8QDJYHPyq+TrlRURWUmhY2qCXDAqT1XPuUlrxFaDVYYFBhMnTlSiEq/ESmxZHRerlZVhYdSoUTJlyhTH5cKdYHVb/LXr1q1Tzy+66CLl840knthGlpDElvzYx2cUyBO/uO9K8HBmnDUAkYUwppu7GRvhiO3dd98tV155pdpOT0+X4uLiqC4tXVtbq7IkgiEYsa2rq3P9+LH2b7nlFrXNa//000/KBxsKd955p3JBQNeuXWXVqlWSkBB8NkpVVZXKJHHyCTsRrthG4jxGklDPT7iENGEnwX+Uyze9R2B6Zyep6rF4gtQkTUVFhcybN89+1mjRHXvssepBsKUlbr755qbfN1/HpKamRvkx9957b5V6lpqaqjIhyIw444wz5KmnnlJ+5WBBrO+//37lO+3Ro4dkZGSo17r00ktVYMoNXnjhBXtL5LLLLgtZaOGcc85RLgRSwvjshYWF9k+aU15eLk8++aScddZZaraBOKelpalBCffD4YcfLh988IH921vy8MMPq/NvHvObb77Z9L28/PLL9t4tYeB64okn5KSTTpIRI0ao9+vcubPss88+SrQXL15s/+aWMIDo18ZP7Y8ffvih6ff4ngPB96l/18lwCOf8kDqoX/uRRx6x9wbmsccea/qbb775Ru0LybIFmtJc9sVambo6uqvt/hHBj00HseOHuZ9iFY5lO23aNCVOmjVr1jT5ExEEAj7Av0S4A7HHHns0uSH4lxvBhNfefffdZdGiRfYeZ/r06SPvv/++uulNfC3b5cuXyzHHHNPkBnHiiCOOkP/85z9BW8++kLFBvqxm2bJl6vhaA37bnj17BrS+GCAQo5bONZDO9fjjj0tOTo69R+SEE07wK6hw1VVXqTQ0E/K0Tz75ZPVZ/ZGVlaWEXF9nGoQYKxquvfbaphmAL1dccYXcc8899jOR+fPny5AhQ+xnm2loaFDX34YNG9TgxL9m0Dbc80MQeK+99lLb5EOvXr064LXBYM4gzvtxHFzDuI9CFluWNX9rQYkluI2+JDchK2HbvBRJbWMZCaxLNje/xvWUL/og3LRbF9VhzG3CEdtHH31ULrjgArXNxcfFrXFTbLFGxo8f32T9IFhHHnmkEh+CdR9++KHMnj1b/Qz4OfmhWlzBFFsEyzzeYcOGyaRJk2Tjxo3y5ZdfqptCE0gEWgIXC64WwG87a9YstR0JsJr4DNo90rt3bzn00EPVOUKE8BljseGC0HB8uCg0Dz30kHz77bcqCKePdejQoerYgRkAgqwhgHfAAQeo7wc4p/vvv78a6PAxMxjzehoyXXgPDcfMAAo777yz+n0ndtpppy0sX0QQa98Xc3Aj/9scONw4P1xD/fv3V4MmvPPOOyoP2h/8nPeAo446Sl577TW1HbLY8svz8qtVmtMMl5qsaA4blKW6gXVOazt+H3hpXpE8NmOjGojcgm5idPg6dUSu6g/hNq0VW1LAuAm1iB500EFbTL3dFNvXX39dXazAxf3GG2808wmSMjVy5EjlagCqsyZPnqy2wRRbDYEnrGCzGo4qLqbD+rNgiSDKvn8bDBwzxw5MW5m+RgqE8O2331bbp59+unKp+J6jyspKufjii9XPAKttxYoVkpm5ZSOoYHy2+GXJGea8A7MAcoERXBMEDzcSbiYGOQR1zJgx6mcIH5Yo1wbnl4FTXzMa9vE7pjyZwmXCwKiPlRkJU3eNW+fnxhtvVJk3wMzolVdeUdtOmN8/1xP3CIR8JXHf98hKlMn93e8+RY4tQksbw7b0wJftth5uk5si43pmRERoWwO+WPxzY8eObRJQplKmBeA2WJsarCOn4AvCed5559nPxPFmNOnVq5eyiH3Ljpl+Ihr48YBBY+bMmWo7VHTKFmj3SiTAJ6oHB9LKOH6nc8RnwrLUU+OioqImsQwVrgH9t1ieiJuv0ALTce0DRjDJptDCSZBPp79hXX7yySdq24R9+vfxAwODsSm+Gp2KyJQdC1vj5vk59dRTm1w5vCaDsxPMkvTx4Bc24xuhD9sW9HKd2DtdhnaM32T2tkyntAQZ3zNNhkQpMIYfExF1emDF5ubmKv/bueeeq35XQ+AnWuWk2vp14oYbbpDp06erdCnyWAOBa4CppBPckFhtGtOtEArmlJTgVktw8+KaIfiiH/g69QMh4OErSkzjsUARNvyqgfyIBBVNf6c/sWgJApoajjPQexJ0otIQvv/++6ZAERxyyCH2lqiUOF/0Ps4fvmFgkPd1yTCw6UGRnGYGTY2b5wc3gp51YQlry9UXLF4drGWmZIp7q8QWfR/QIVmOGZrjuJSNR+th8KRJ+QEDs9V2NODiQKycHpRtMtKbYK0RoY10Hua+++5rb4l6r1NOOUX5An3Tt8hMYIoaTA7rhAkT7C1nTIsXK6U1mDcYM4KWwFrEB471rh9YgvrBFJcHVqQJAyGDx0svvaT+JhAIhJk2RhAnVHAh6VkNKX8Mxi1hnm8CXBq+W9KuwElsP/74Y/UvbibyujUEq0zMAhtcBiZunx/cEBozc8Pk+eeft7ekWWCwVWILNPLes2+G9Wi5AbhH8PTPTpYjBmdbg1nrIuGRgGnc6NGjlS+Kixf/LhdSpPMTudHMlCkuZAJmHA9+MwQ/VOuTqV0gSAPTaD9wqOCq0ATTdMZNmGbjb/z000+ViCPSCB5TZDMDg+l7qCxYsMDeasw0IJcYyzHQwxRY8+85zzrCj3X666+/qm1gCk/EH0h5CyS2+N6Ba9G0lv0Rzvnh+udzAzMtcwYDZGjo1yCO4JsZ02qxhUE5yXLKtjlq2usRPmmJ7WT33uly2DbRXY1hwIABKors9GAqRrCCnEf8oQQj9AUXabCeaANpBrwAi5NjIZ2HqDKNUwhC+Vq8vhCMMcU0UnBMGi0agSCIRnWY04MBpyV0HjIDEZ+PrAxECrcP7gfOYWsHDhNTLLk2SAdr6aEtVDD/HkxxJLCpMf8GQWaA1MJFJoT+nrFGEU3AyvbXltKt88P1yCAPiDEWs0kgqxbCElsMmx26pMhp2+VIRlJYL6VoXPixVi0C2ZYeVNY5+O1DIql9OxnbPU1O3rZD1Be1ZPqEb8zpwQUWS/DBkZpDRJm0L98IOpYK/kBSgghG4LeNNcOHD7e3RIkBEfxAkCZkug3MB2W+gcAKZLBkiouLBQEywT999NFHq+wTMze6NZjnlmAU1mAoD99jI8NEz45MV4Le5nPhKwXEEfCl0gsYsHL1a/q6EDRunx/TlUC7TA3XoRZbzo2ZKqcJOfXLCRZDvGvaBpmyNLw1ynplJcqg3MbVatsSy0pqVN+IujAyv1h2hwUdjxy82cEfSVqb+tUSZuoXgTWeB4I8S6xm8E39cgJfGjcNHch4+GYM4LvF16zh8tbpW/zbkvVLutIzzzyjtp999tktbq5gwYIbPHiw/ayxxaLpfw4FswCAJkB0ANMwHcaq19kPDERYi+Sc4n7RwU2NmWZHUE6nJGlaSv0yU/F8U/5ai/7+yQjgWuE74phJGTvzzDOb0rFwF+jjvf3221UVGgOsTqtzKnhw+/xoeB99vxDTIEhs5g6TDucUQAvfHLUYmJMsJw7PkRGdUu09PiDnQUj6ytI6+Xx5uVqfrC095hWEJ7QsgImfdt8gFsCMd7SwQTBTM9/gW0sQUSZJnZQzEt5JSuem1HDjBjN1jyQMXqaVRIGDCzZNMyhR1UIycOBA1X8Ba+v8889XfkhTSMAc+FoadJwwB5AZM2bYW+GhXQlYnEznycdFaEH7dIFBWGcTaNeBDo5RgOFUWRap82O6CLSoUt6sIU3MCVfEli5dNEw5fli2Eg5NO62wbctQjSpY8bv0SFO+78xkV76OmKIjzMANFCjqTQMbf/Xz+IoJgFGySbNyf5A9gPVjiptT3ma04YbWMN01y07dwkyHo+rJFENf+C7M2UtrxJZlkfS0n+CQv+/OhFkCmRY0TneqFNOVVoDfVn8m3odULg1Wqc5+YGZD1ZgWUn8uhEidH7JitFHx1ltvqX914QSuN6rrnHDt7kYo9huQJSdbotG5SXDp9upprT9SE9vJ+F7pct5Oeao4YmuA6aAOQhFECLTOGc06/F3UiDZTWkSKZPSWeiOYifWmdR0r6EeLL1BzzTXXKGs8lCwA0ovMvGFf65jyWg3WXSBwEdDlSuPkRzYHSqdBku/WDFZecskl9pYzDKbkYpNDzL9M631hKt+vXz+1ja/2888/V9tM83Uxg0b7bfkcuDk0/sTW7fOjIQCqzwMWPkUy+vrke3cqnABXr8rulmCcOLyDHDYoWy37vQUuKu7zB/aK2oOgVSRIbN9OhuelyiWj82THLn7cL20Upmga/GrmRawhkktmgz+4YM2bCFeBP2EmCKJTghBa/HTxABa3bkDDzYufEb8g019/Fj95uZwbqrNI5kewNL7FGGZBSSD/KYURvg3edV8DEzMYagqVCdF7PZ2nBwAWq5OLhM9HkEi7iTgPFDk4oV0J9LnAagXThaDRYgtalGn4gt/XCbfPj4npyzdnMU5ZCBrXTYDuGUly3LAOslffzCarlpmHm9Yty+dE6xEpi7NreqJcOCpPdui8dQktmOWzTM2Y/lF5xLSOm5XAAxclN6lZseULLQ91mhk3F7mLCBHiSv7qzz//rCxffLjaz0cQiehzPEAEnlQlU/x5ThQekeBf0o+wehlMEBiCi1hHZgMWMjJIXaI+38RMnUL0eB2sR84rU3zcMFQxkUsKZicss3mQRg8MgJBivTFYEijU4Bs1LVosVrJASMUjMEiu6auvvqq+c92yEHFmduKvF6/pStB+fiex5TV90w45B/7yvd0+PyYcs/b5ancK13KgVpquZCP4Ut+wSUXnH/qpQN5bVCqbLKnlbdx6o3/u31P27R/5YNLM9VVy/Tfr5Ye17raTZAZwzx7dZHzP9JitShGpbARgqoxfy0yN8QULlEgyvjJSnAAx9s1GwArkwg5m+s3NRNGFefNx3Wm3Av+25Kt0IxvBF6xahJL1yFpKAzPh5ifYct111zmWGPNa5I76+kKZFfi+D9YXVjXpc4BfURcEaLCqKa/19cUiumYeLFYrmQo8Wvo8CCwpUZTM+oPXw9eprWDEmWCVb5ofMECZVWOBMj3cPj++8De4wjTkRetr2YmIOLfIEx3SMUWuHNtZDh/UwVL0xv1NAbMwIQMgGnyzqlyWloSfDG6Cpfz45B4yqXdGm1r+JxQQNe1vNBP8gZsPCxVLyMwi8AdWMPXwTEmdLCNq2plG8nq33nqrXysnlnBzc2xkSTzwwAMBrXmOn9xaBBbRwxXhr5cDr0swEHcM/lSNFhJ854gGVU30MUCUtPWGf9TXekPceD0scc6rxqwCA8SQwYMUO8TM9PVq+K5wg9AQPpDQAq9nNpDBgnUSWjBdCVj8CKQ/3D4/vpgDMZ/BKbfWJCKWrcmq0jq5d3q+vP57sdS59E7k/L9ySB/ZrWfkVo3AMr/26/Xy9crwcoc1SAB9aZ/Zr5cqBPkjQUktiejcwGQNtLYCjYR2Ur1ohlNaWqqCKwQ+uKnaGhQIMKXlQYUeLgcqpZim+waGggGrlCk8gRqEjnODO6W1gw/WJiKLH5fyYydB1TBbwIWAe4eBlvflEa1Kw2Bw+/wAn1dXtuGPpgVoICIutrCqtFYe/blQ3lpYImU1DWGvQMvpIV3qqX17bpFq5hZltQ3yxIxC+ffcIlUdFi5kHfTNTpZH9u4uIzr9sYTWw2NrxVxJApeDv5QvTVTEFmis/e7CUnlm9kaZXxj+qgZYtzt3T1MC1jPTvaYtG6vq5e8zC+WFucVSaG2HS4eU9nLM0Gy5ZHQnyUlxf2Dw8PCIPsQaSFljVoLlz4zLyc1lEhGfrRPpSe3l2GEd5OLReTKpT3rYwoNW/7i2Sq75ar3Mza9Wz8OBv19pWeBPz9oor84vcUVod+iSKqdvlyM37dbVE1oPj60EhBb/LEILBMVaElqImmVrsqqsVl6aVyzvLyqVpcW1UhOGX4EYE/1f/7R9rspXpXQ4VPIr62Tm+mp5e2GJfLK0TIqqw6i9teicniA7d0uXS8bkyfA8z23g4dHWIdhL2TV+aPoh6DxpqtKIRwTjn46J2EJl3Sb5ZmW5fLC4VD5eWh62JUl7wj36ZMiE3hkyzBI40qt6Zfl3LxRX6w5jtTJ1dYXqybDMeh4uE633n9wvQ44a0kEtl+Ph4dH2IWdYL+WjoVk9ZcOkTgZDzMRWQ/Dsq5UV8qElut+vrpTyMBdNZB0zglAsmMhS4FRq5aYmSEdrGl9Z3yAbKuotoW+QoqoGlda1qKhGVpcFzhUMBlYF3n9AlvXIlKHWdutjnB4eHvEGeeikxJFFghVL3wb6LZhL1rdEzMVWM7+gWqauqZQ3fy+RmRuqwnItmCS0a6csTB68ZpFl0Va79NqAoFOeTIECGRKIu4eHx9YJudKk5pFXGypxI7aACC7YWC1z82vkixXlMmVJmbJC4xGEdZ++mbJ9l1RlSWdblrMnsx4eHv6IK7HVYIHmV9bLuvI6eeP3YuXTXVFWK7E+0o6pCUpkjx7SQQblJqtqMLIsPJH18PBoibgUWxMCWaU1DbKkqFY+XVYmT8/eGHXR3btvhhy6TbbKeqCIgtxZz13g4eERPCL/B1V6f8QYGRMSAAAAAElFTkSuQmCC;" parent="1" vertex="1">
          <mxGeometry x="840" y="192.7" width="200" height="53.6" as="geometry" />
        </mxCell>
        <mxCell id="29" value="" style="endArrow=classic;html=1;fontSize=28;exitX=0.543;exitY=0.005;exitDx=0;exitDy=0;exitPerimeter=0;" parent="1" source="Z-ONA9Y9qmdscowLKf11-36" target="4" edge="1">
          <mxGeometry width="50" height="50" relative="1" as="geometry">
            <mxPoint x="760" y="410" as="sourcePoint" />
            <mxPoint x="940" y="364.5" as="targetPoint" />
            <Array as="points" />
          </mxGeometry>
        </mxCell>
        <mxCell id="34" value="Alert Manager" style="rounded=1;whiteSpace=wrap;html=1;labelBackgroundColor=#ffffff;strokeColor=#000000;fontSize=28;fontStyle=1" parent="1" vertex="1">
          <mxGeometry x="1560" y="407.7" width="230" height="120" as="geometry" />
        </mxCell>
        <mxCell id="Z-ONA9Y9qmdscowLKf11-36" value="" style="rounded=1;whiteSpace=wrap;html=1;direction=south;" parent="1" vertex="1">
          <mxGeometry x="611.25" y="105" width="140" height="550" as="geometry" />
        </mxCell>
        <mxCell id="Z-ONA9Y9qmdscowLKf11-37" value="" style="endArrow=classic;html=1;rounded=0;entryX=0;entryY=0.5;entryDx=0;entryDy=0;exitX=0.199;exitY=-0.001;exitDx=0;exitDy=0;exitPerimeter=0;" parent="1" source="Z-ONA9Y9qmdscowLKf11-36" edge="1">
          <mxGeometry width="50" height="50" relative="1" as="geometry">
            <mxPoint x="790" y="240" as="sourcePoint" />
            <mxPoint x="839.9999999999999" y="214" as="targetPoint" />
            <Array as="points" />
          </mxGeometry>
        </mxCell>
        <mxCell id="Z-ONA9Y9qmdscowLKf11-38" value="traces" style="edgeLabel;html=1;align=center;verticalAlign=middle;resizable=0;points=[];fontSize=28;" parent="1" vertex="1" connectable="0">
          <mxGeometry x="919.9999701775339" y="580.004615357087" as="geometry" />
        </mxCell>
        <mxCell id="Z-ONA9Y9qmdscowLKf11-39" value="logs" style="edgeLabel;html=1;align=center;verticalAlign=middle;resizable=0;points=[];fontSize=28;" parent="1" vertex="1" connectable="0">
          <mxGeometry x="919.9982958082367" y="400.00450753617326" as="geometry" />
        </mxCell>
        <mxCell id="24" style="edgeStyle=orthogonalEdgeStyle;html=1;fontSize=28;" parent="1" source="17" edge="1">
          <mxGeometry relative="1" as="geometry">
            <mxPoint x="1110" y="220" as="targetPoint" />
          </mxGeometry>
        </mxCell>
        <mxCell id="Z-ONA9Y9qmdscowLKf11-40" value="" style="shape=image;verticalLabelPosition=bottom;labelBackgroundColor=default;verticalAlign=top;aspect=fixed;imageAspect=0;image=https://www.onurbabur.com/wp-content/uploads/2020/08/Nginx-Logo.wine_.png;direction=south;" parent="1" vertex="1">
          <mxGeometry x="516.25" y="130" width="330" height="495" as="geometry" />
        </mxCell>
      </root>
    </mxGraphModel>
  </diagram>
</mxfile>
